<?xml version="1.0" encoding="UTF-8" standalone="no"?>
<!-- Created with Inkscape (http://www.inkscape.org/) -->

<svg
   width="30mm"
   height="128.5mm"
   viewBox="0 0 30 128.5"
   version="1.1"
   id="svg12745"
   inkscape:version="1.2.1 (9c6d41e, 2022-07-14)"
   sodipodi:docname="PonyVCF.svg"
   xmlns:inkscape="http://www.inkscape.org/namespaces/inkscape"
   xmlns:sodipodi="http://sodipodi.sourceforge.net/DTD/sodipodi-0.dtd"
   xmlns="http://www.w3.org/2000/svg"
   xmlns:svg="http://www.w3.org/2000/svg">
  <sodipodi:namedview
     id="namedview12747"
     pagecolor="#ffffff"
     bordercolor="#666666"
     borderopacity="1.0"
     inkscape:showpageshadow="2"
     inkscape:pageopacity="0.0"
     inkscape:pagecheckerboard="0"
     inkscape:deskcolor="#d1d1d1"
     inkscape:document-units="mm"
     showgrid="false"
     inkscape:zoom="2.6532575"
     inkscape:cx="5.4649803"
     inkscape:cy="151.32342"
     inkscape:window-width="2560"
     inkscape:window-height="1301"
     inkscape:window-x="0"
     inkscape:window-y="25"
     inkscape:window-maximized="1"
     inkscape:current-layer="layer2"
     showguides="false" />
  <defs
     id="defs12742" />
  <g
     inkscape:label="Layer 1"
     inkscape:groupmode="layer"
     id="layer1">
    <g
       inkscape:groupmode="layer"
       id="layer2"
       inkscape:label="Graficos"
       style="display:inline"
       transform="translate(0,-168.49999)">
      <path
         id="path20445"
         style="display:inline;fill:#171717;fill-opacity:1;stroke:#000000;stroke-width:0.2;stroke-miterlimit:4;stroke-dasharray:none;stroke-opacity:1"
         d="M 0.10000005,168.59999 H 29.89999 v 128.3 H 0.10006005 Z"
         inkscape:connector-curvature="0"
         inkscape:export-filename="/home/diego/Escritorio/voltio panel g.png"
         inkscape:export-xdpi="600"
         inkscape:export-ydpi="600"
         sodipodi:nodetypes="ccccc" />
      <g
         id="g45926"
         transform="matrix(0.80415146,0,0,0.80415146,-33.934212,48.185572)"
         inkscape:export-xdpi="600"
         inkscape:export-ydpi="600">
        <g
           aria-label="3"
           id="text32611"
           style="font-weight:bold;font-stretch:condensed;line-height:0%;font-family:Miso;-inkscape-font-specification:'Miso Bold Condensed';letter-spacing:-0.0185753px;word-spacing:0px;display:inline;opacity:1;fill:#ffffff;stroke-width:0.282223;enable-background:new"
           inkscape:transform-center-x="0.58722876"
           inkscape:transform-center-y="14.092462">
          <path
             d="m 75.754934,247.48326 c -0.161453,0.0455 -0.327045,-0.0248 -0.409841,-0.16974 -0.03726,-0.0621 -0.120055,-0.0828 -0.182152,-0.0497 -0.0621,0.0373 -0.08694,0.12005 -0.04968,0.18215 0.140754,0.24839 0.43468,0.36844 0.707908,0.29392 0.281507,-0.0787 0.467798,-0.3229 0.467798,-0.60855 v -0.24839 c 0,-0.20285 -0.09521,-0.38086 -0.244248,-0.49677 0.149033,-0.11592 0.244248,-0.29393 0.244248,-0.49678 v -0.16559 c 0,-0.28565 -0.186291,-0.5299 -0.467798,-0.60856 -0.277367,-0.0787 -0.563014,0.0497 -0.707908,0.29393 -0.03726,0.0621 -0.01242,0.14489 0.04968,0.18215 0.0621,0.0373 0.144893,0.0124 0.182152,-0.0497 0.0828,-0.1449 0.248388,-0.21527 0.409841,-0.16974 0.161453,0.0455 0.269088,0.18629 0.269088,0.35189 v 0.16559 c 0,0.20285 -0.165593,0.3643 -0.364304,0.3643 -0.07866,0 -0.132474,0.0538 -0.132474,0.13248 0,0.0786 0.05382,0.13247 0.132474,0.13247 0.198711,0 0.364304,0.16559 0.364304,0.3643 v 0.24839 c 0,0.16559 -0.107635,0.30635 -0.269088,0.35189 z"
             style="font-size:4.13981px;line-height:1.25"
             id="path16980" />
        </g>
        <path
           id="path45307"
           style="fill:#ffffff;fill-opacity:1;fill-rule:evenodd;stroke:none;stroke-width:0.299998;stroke-miterlimit:10;paint-order:stroke fill markers"
           inkscape:transform-center-x="0.60999184"
           d="m 70.59542,247.78343 3.641051,-2.799 v 2.799 z"
           sodipodi:nodetypes="cccc"
           inkscape:transform-center-y="1.7726274e-05"
           inkscape:connector-curvature="0" />
      </g>
      <text
         xml:space="preserve"
         style="font-style:normal;font-variant:normal;font-weight:bold;font-stretch:condensed;font-size:3.38667px;line-height:0%;font-family:Miso;-inkscape-font-specification:'Miso Bold Condensed';letter-spacing:-0.0142462px;word-spacing:0px;display:inline;opacity:1;fill:#ffffff;fill-opacity:1;stroke:none;stroke-width:0.282223;enable-background:new"
         x="41.689617"
         y="171.8221"
         id="text12116"
         inkscape:export-filename="/home/diego/Escritorio/tirar kick all"
         inkscape:export-xdpi="600"
         inkscape:export-ydpi="600"
         inkscape:transform-center-x="0.53338096"
         inkscape:transform-center-y="12.800067" />
      <text
         xml:space="preserve"
         style="font-style:normal;font-variant:normal;font-weight:bold;font-stretch:condensed;font-size:3.38667px;line-height:0%;font-family:Miso;-inkscape-font-specification:'Miso Bold Condensed';letter-spacing:-0.0142462px;word-spacing:0px;display:inline;opacity:1;fill:#ffffff;fill-opacity:1;stroke:none;stroke-width:0.282223;enable-background:new"
         x="11.527104"
         y="171.8221"
         id="text4633"
         inkscape:export-filename="/home/diego/Escritorio/tirar kick all"
         inkscape:export-xdpi="600"
         inkscape:export-ydpi="600"
         inkscape:transform-center-x="0.53338023"
         inkscape:transform-center-y="12.800067" />
      <text
         xml:space="preserve"
         style="font-style:normal;font-variant:normal;font-weight:bold;font-stretch:condensed;font-size:3.38667px;line-height:0%;font-family:Miso;-inkscape-font-specification:'Miso Bold Condensed';letter-spacing:-0.0142462px;word-spacing:0px;display:inline;opacity:1;fill:#ffffff;fill-opacity:1;stroke:none;stroke-width:0.282223;enable-background:new"
         x="68.677139"
         y="171.8221"
         id="text5135"
         inkscape:export-filename="/home/diego/Escritorio/tirar kick all"
         inkscape:export-xdpi="600"
         inkscape:export-ydpi="600"
         inkscape:transform-center-x="0.53338096"
         inkscape:transform-center-y="12.800067" />
      <g
         aria-label="CV 1"
         id="text20449"
         style="font-weight:bold;font-stretch:condensed;line-height:0%;font-family:Miso;-inkscape-font-specification:'Miso Bold Condensed';letter-spacing:-0.0142462px;word-spacing:0px;display:inline;opacity:1;fill:#ffffff;stroke-width:0.282223;enable-background:new"
         inkscape:transform-center-x="0.53338113"
         inkscape:transform-center-y="12.800079">
        <path
           d="m 13.478438,275.8387 c 0.202565,0.0552 0.420476,-0.0338 0.524828,-0.21791 0.02455,-0.046 0.0092,-0.10742 -0.03683,-0.13505 -0.04604,-0.0246 -0.107421,-0.009 -0.135043,0.0368 -0.06138,0.10742 -0.184151,0.1596 -0.303848,0.12584 -0.119698,-0.0338 -0.199496,-0.13811 -0.199496,-0.26088 v -1.04352 c 0,-0.12277 0.0798,-0.22712 0.199496,-0.26088 0.119697,-0.0338 0.242464,0.0184 0.303848,0.12584 0.02762,0.046 0.08901,0.0644 0.135043,0.0368 0.04604,-0.0276 0.06138,-0.089 0.03683,-0.13505 -0.107421,-0.18108 -0.319194,-0.27622 -0.524828,-0.21791 -0.208704,0.0583 -0.346816,0.2394 -0.346816,0.45117 v 1.04352 c 0,0.21177 0.138112,0.39285 0.346816,0.45117 z"
           style="font-size:3.06917px;line-height:1.25"
           id="path17032" />
        <path
           d="m 14.231479,274.00333 0.491067,1.78012 c 0.01228,0.0399 0.04911,0.0706 0.09515,0.0706 0.04604,0 0.08287,-0.0307 0.09207,-0.0706 l 0.491067,-1.78012 c 0.01535,-0.0522 -0.01535,-0.10742 -0.06752,-0.12276 -0.05218,-0.0123 -0.107421,0.0184 -0.119698,0.0706 -0.05218,0.18722 -0.104351,0.37137 -0.153458,0.54938 -0.08287,0.30078 -0.18415,0.66294 -0.242464,0.88699 -0.06752,-0.22405 -0.162666,-0.58314 -0.245534,-0.88699 -0.04911,-0.17801 -0.101283,-0.36216 -0.153459,-0.54938 -0.01228,-0.0522 -0.06752,-0.0829 -0.119697,-0.0706 -0.05218,0.0153 -0.08287,0.0706 -0.06752,0.12276 z"
           style="font-size:3.06917px;line-height:1.25"
           id="path17034" />
        <path
           d="m 16.474171,274.4146 0.202565,-0.20256 v 1.54379 c 0,0.0583 0.0399,0.0982 0.09821,0.0982 0.05218,0 0.09821,-0.0399 0.09821,-0.0982 v -1.78012 c 0,-0.046 -0.02149,-0.0767 -0.06138,-0.0921 -0.03683,-0.0123 -0.0798,-0.006 -0.107421,0.0215 l -0.3683,0.3683 c -0.01842,0.0215 -0.02762,0.043 -0.02762,0.0706 0,0.0276 0.0092,0.0491 0.02762,0.0706 0.02148,0.0184 0.04297,0.0276 0.07059,0.0276 0.02762,0 0.04911,-0.009 0.06752,-0.0276 z"
           style="font-size:3.06917px;line-height:1.25"
           id="path17036" />
      </g>
      <g
         aria-label="CV 2"
         id="text20453"
         style="font-weight:bold;font-stretch:condensed;line-height:0%;font-family:Miso;-inkscape-font-specification:'Miso Bold Condensed';letter-spacing:-0.0142462px;word-spacing:0px;display:inline;opacity:1;fill:#ffffff;stroke-width:0.282223;enable-background:new"
         inkscape:transform-center-x="0.53338113"
         inkscape:transform-center-y="12.800079">
        <path
           d="m 13.349536,289.369 c 0.202565,0.0552 0.420476,-0.0338 0.524828,-0.21791 0.02455,-0.046 0.0092,-0.10742 -0.03683,-0.13504 -0.04604,-0.0246 -0.107421,-0.009 -0.135044,0.0368 -0.06138,0.10742 -0.18415,0.15959 -0.303848,0.12583 -0.119697,-0.0338 -0.199496,-0.13811 -0.199496,-0.26088 v -1.04351 c 0,-0.12277 0.0798,-0.22712 0.199496,-0.26088 0.119698,-0.0338 0.242465,0.0184 0.303848,0.12583 0.02762,0.046 0.08901,0.0645 0.135044,0.0368 0.04604,-0.0276 0.06138,-0.089 0.03683,-0.13504 -0.107421,-0.18108 -0.319194,-0.27623 -0.524828,-0.21791 -0.208704,0.0583 -0.346817,0.23939 -0.346817,0.45117 v 1.04351 c 0,0.21178 0.138113,0.39286 0.346817,0.45117 z"
           style="font-size:3.06917px;line-height:1.25"
           id="path17025" />
        <path
           d="m 14.102577,287.53364 0.491067,1.78012 c 0.01228,0.0399 0.04911,0.0706 0.09514,0.0706 0.04604,0 0.08287,-0.0307 0.09207,-0.0706 l 0.491067,-1.78012 c 0.01535,-0.0522 -0.01534,-0.10742 -0.06752,-0.12277 -0.05218,-0.0123 -0.107421,0.0184 -0.119698,0.0706 -0.05218,0.18722 -0.104352,0.37137 -0.153458,0.54938 -0.08287,0.30078 -0.184151,0.66294 -0.242465,0.88699 -0.06752,-0.22405 -0.162666,-0.58314 -0.245533,-0.88699 -0.04911,-0.17801 -0.101283,-0.36216 -0.153459,-0.54938 -0.01228,-0.0522 -0.06752,-0.0829 -0.119698,-0.0706 -0.05218,0.0154 -0.08287,0.0706 -0.06752,0.12277 z"
           style="font-size:3.06917px;line-height:1.25"
           id="path17027" />
        <path
           d="m 16.167256,287.7761 c 0.04604,0.0276 0.107421,0.009 0.135044,-0.0368 0.03376,-0.0614 0.08901,-0.10435 0.159597,-0.12583 0.07059,-0.0184 0.138112,-0.009 0.202565,0.0245 0.06445,0.0338 0.107421,0.089 0.128905,0.1596 0.02148,0.0706 0.01535,0.13811 -0.01842,0.20256 l -0.644526,1.22767 c -0.01842,0.0307 -0.01842,0.0644 0.0031,0.0982 0.01535,0.0307 0.04297,0.046 0.08287,0.046 h 0.687494 c 0.05218,0 0.09821,-0.0399 0.09821,-0.0982 0,-0.0583 -0.04604,-0.0982 -0.09821,-0.0982 h -0.524828 c 0.05831,-0.11049 0.199496,-0.38057 0.328401,-0.62611 0.07366,-0.14425 0.153459,-0.29464 0.239395,-0.4573 0.05832,-0.11356 0.07059,-0.23326 0.03376,-0.35296 -0.03376,-0.1197 -0.113559,-0.21484 -0.22098,-0.27315 -0.107421,-0.0583 -0.230188,-0.0737 -0.349885,-0.0399 -0.122767,0.0307 -0.214842,0.10128 -0.279295,0.21484 -0.02762,0.046 -0.0092,0.10742 0.03683,0.13504 z"
           style="font-size:3.06917px;line-height:1.25"
           id="path17029" />
      </g>
      <path
         style="fill:none;stroke:#ffffff;stroke-width:0.465;stroke-linecap:butt;stroke-linejoin:miter;stroke-miterlimit:4;stroke-dasharray:none;stroke-opacity:1"
         d="m 14.999696,192.45363 v -2.30719 c 0.01217,-0.59862 -0.438533,-1.20213 -0.869062,-1.58216 l -1.898212,-1.51673"
         id="path20455"
         sodipodi:nodetypes="cccc"
         inkscape:connector-curvature="0"
         inkscape:export-xdpi="600"
         inkscape:export-ydpi="600" />
      <g
         transform="matrix(-0.26458333,0,0,0.26458333,158.5386,112.98241)"
         id="g20463"
         style="display:inline"
         inkscape:export-xdpi="600"
         inkscape:export-ydpi="600">
        <path
           inkscape:export-ydpi="600"
           inkscape:export-xdpi="600"
           inkscape:export-filename="/home/diego/Escritorio/Hex_Mix_VCA.png"
           sodipodi:type="arc"
           style="display:inline;fill:none;stroke:#ffffff;stroke-width:1.51181;stroke-linecap:butt;stroke-linejoin:miter;stroke-miterlimit:4;stroke-dasharray:none;stroke-opacity:1;enable-background:new"
           id="path20457"
           sodipodi:cx="-570.401"
           sodipodi:cy="265.14038"
           sodipodi:rx="23.453003"
           sodipodi:ry="23.455235"
           transform="scale(-1,1)"
           sodipodi:start="2.0832953"
           sodipodi:end="1.0646776"
           sodipodi:open="true"
           inkscape:transform-center-x="0.046773228"
           inkscape:transform-center-y="-0.31486632"
           sodipodi:arc-type="arc"
           d="m -581.90134,285.58213 a 23.453003,23.455235 0 0 1 -11.17735,-26.42276 23.453003,23.455235 0 0 1 22.75251,-17.4741 23.453003,23.455235 0 0 1 22.64056,17.61892 23.453003,23.455235 0 0 1 -11.34569,26.35091" />
        <path
           inkscape:export-ydpi="600"
           inkscape:export-xdpi="600"
           inkscape:export-filename="/home/diego/Escritorio/Hex_Mix_VCA.png"
           id="path20459"
           style="display:inline;fill:#ffffff;fill-opacity:1;fill-rule:nonzero;stroke:none;stroke-width:1.06667;enable-background:new"
           d="m 557.98884,283.82065 c 1.11001,-0.64082 2.52953,-0.26046 3.17038,0.84945 0.64092,1.11012 0.26053,2.5297 -0.84945,3.17045 -1.11008,0.64096 -2.52958,0.2606 -3.17039,-0.84945 -0.64094,-1.10998 -0.26057,-2.52952 0.84946,-3.17045"
           inkscape:connector-curvature="0" />
        <path
           inkscape:export-ydpi="600"
           inkscape:export-xdpi="600"
           inkscape:export-filename="/home/diego/Escritorio/Hex_Mix_VCA.png"
           id="path20461"
           style="display:inline;fill:#ffffff;fill-opacity:1;fill-rule:nonzero;stroke:none;stroke-width:1.06667;enable-background:new"
           d="m 579.46512,285.83059 c 9e-5,-1.28189 1.03935,-2.32117 2.32127,-2.32125 1.282,8e-5 2.32134,1.03938 2.32129,2.32129 4e-5,1.28201 -1.03925,2.3213 -2.32126,2.32126 -1.28192,4e-5 -2.32121,-1.03928 -2.3213,-2.3213"
           inkscape:connector-curvature="0" />
      </g>
      <g
         id="g20469"
         transform="matrix(0.98281995,0,0,1.0613349,-297.24739,-13.153554)"
         style="display:inline;opacity:1;stroke:none;stroke-width:0.988596"
         inkscape:export-xdpi="600"
         inkscape:export-ydpi="600">
        <g
           style="display:inline;stroke:none;stroke-width:0.988596"
           transform="matrix(0.2807711,0,0,0.26458333,102.17083,15.427607)"
           id="g20467">
          <path
             style="display:inline;opacity:1;fill:#ffffff;fill-opacity:1;stroke:none;stroke-width:0.215487;stroke-linecap:round;stroke-miterlimit:4;stroke-dasharray:none;stroke-dashoffset:0;stroke-opacity:1"
             d="m 791.59826,975.45392 h 24.58697 c 2.90194,0 5.23816,2.43216 5.23816,5.45328 v 34.3739 c 0,3.0211 -2.33622,5.4532 -5.23816,5.4532 h -24.58697 c -2.90193,0 -5.23815,-2.4321 -5.23815,-5.4532 v -34.3739 c 0,-3.02112 2.33622,-5.45328 5.23815,-5.45328 z"
             id="path20465"
             inkscape:connector-curvature="0"
             sodipodi:nodetypes="sssssssss" />
        </g>
      </g>
      <g
         aria-label="OUT"
         transform="scale(1.0212497,0.97919246)"
         id="text20473"
         style="font-weight:bold;font-stretch:condensed;line-height:0%;font-family:Miso;-inkscape-font-specification:'Miso Bold Condensed';letter-spacing:-0.0115001px;word-spacing:0px;display:inline;opacity:1;stroke-width:0.229805;enable-background:new">
        <path
           d="m 23.023762,295.66017 c 0.296334,0 0.536223,-0.23989 0.536223,-0.53622 v -1.19945 c 0,-0.29633 -0.239889,-0.53622 -0.536223,-0.53622 -0.296334,0 -0.536223,0.23989 -0.536223,0.53622 v 1.19945 c 0,0.29633 0.239889,0.53622 0.536223,0.53622 z m 0,-2.04611 c 0.169333,0 0.310445,0.14111 0.310445,0.31044 v 1.19945 c 0,0.17286 -0.141112,0.31044 -0.310445,0.31044 -0.172861,0 -0.310445,-0.13758 -0.310445,-0.31044 v -1.19945 c 0,-0.16933 0.137584,-0.31044 0.310445,-0.31044 z"
           style="font-size:3.52778px;line-height:1.25"
           id="path17068" />
        <path
           d="m 24.183479,295.12395 v -1.62278 c 0,-0.067 -0.05292,-0.11289 -0.112888,-0.11289 -0.06703,0 -0.112889,0.0459 -0.112889,0.11289 v 1.62278 c 0,0.29633 0.239889,0.53622 0.536222,0.53622 0.292806,0 0.536223,-0.23989 0.536223,-0.53622 v -1.62278 c 0,-0.067 -0.05292,-0.11289 -0.112889,-0.11289 -0.06703,0 -0.112889,0.0459 -0.112889,0.11289 v 1.62278 c 0,0.17286 -0.141111,0.31044 -0.310445,0.31044 -0.172861,0 -0.310445,-0.13758 -0.310445,-0.31044 z"
           style="font-size:3.52778px;line-height:1.25"
           id="path17070" />
        <path
           d="m 26.359202,293.40239 h -0.917223 c -0.05997,0 -0.112889,0.0459 -0.112889,0.11289 0,0.067 0.05292,0.11289 0.112889,0.11289 h 0.345723 v 1.91911 c 0,0.067 0.05292,0.11289 0.112889,0.11289 0.06703,0 0.112889,-0.0459 0.112889,-0.11289 v -1.91911 h 0.345722 c 0.06703,0 0.112889,-0.0459 0.112889,-0.11289 0,-0.067 -0.04586,-0.11289 -0.112889,-0.11289 z"
           style="font-size:3.52778px;line-height:1.25"
           id="path17072" />
      </g>
      <g
         aria-label="VCA"
         id="text20477"
         style="font-weight:bold;font-stretch:condensed;line-height:0%;font-family:Miso;-inkscape-font-specification:'Miso Bold Condensed';letter-spacing:-0.0142462px;word-spacing:0px;display:inline;opacity:1;fill:#ffffff;stroke-width:0.282223;enable-background:new"
         inkscape:transform-center-x="0.53337487"
         inkscape:transform-center-y="12.799991">
        <path
           d="m 23.166558,260.49561 0.491067,1.78012 c 0.01228,0.0399 0.04911,0.0706 0.09515,0.0706 0.04604,0 0.08287,-0.0307 0.09207,-0.0706 l 0.491067,-1.78012 c 0.01535,-0.0522 -0.01535,-0.10742 -0.06752,-0.12276 -0.05218,-0.0123 -0.107421,0.0184 -0.119698,0.0706 -0.05218,0.18722 -0.104351,0.37137 -0.153458,0.54938 -0.08287,0.30078 -0.18415,0.66294 -0.242464,0.88699 -0.06752,-0.22405 -0.162666,-0.58314 -0.245534,-0.88699 -0.04911,-0.17801 -0.101283,-0.36216 -0.153459,-0.54938 -0.01228,-0.0522 -0.06752,-0.0829 -0.119697,-0.0706 -0.05218,0.0153 -0.08287,0.0706 -0.06752,0.12276 z"
           style="font-size:3.06917px;line-height:1.25"
           id="path17050" />
        <path
           d="m 24.941638,262.33098 c 0.202565,0.0552 0.420476,-0.0338 0.524828,-0.21791 0.02455,-0.046 0.0092,-0.10743 -0.03683,-0.13505 -0.04604,-0.0246 -0.107421,-0.009 -0.135044,0.0368 -0.06138,0.10742 -0.18415,0.1596 -0.303848,0.12584 -0.119697,-0.0338 -0.199496,-0.13811 -0.199496,-0.26088 v -1.04352 c 0,-0.12277 0.0798,-0.22712 0.199496,-0.26088 0.119698,-0.0338 0.242465,0.0184 0.303848,0.12584 0.02762,0.046 0.08901,0.0644 0.135044,0.0368 0.04604,-0.0276 0.06138,-0.089 0.03683,-0.13505 -0.107421,-0.18108 -0.319194,-0.27622 -0.524828,-0.21791 -0.208704,0.0583 -0.346816,0.2394 -0.346816,0.45117 v 1.04352 c 0,0.21177 0.138112,0.39285 0.346816,0.45117 z"
           style="font-size:3.06917px;line-height:1.25"
           id="path17052" />
        <path
           d="m 26.839479,262.22356 -0.491067,-1.78012 c -0.01228,-0.046 -0.04911,-0.0737 -0.09514,-0.0737 -0.04604,0 -0.08287,0.0276 -0.09514,0.0737 l -0.491067,1.78012 c -0.01535,0.0522 0.01535,0.10435 0.06752,0.11969 0.05831,0.0154 0.107421,-0.0153 0.122767,-0.0675 0.0092,-0.0307 0.01842,-0.0645 0.02762,-0.10128 0.02149,-0.0644 0.03683,-0.15039 0.07059,-0.25781 h 0.595419 c 0.02762,0.10742 0.04911,0.19336 0.07059,0.25781 0.0092,0.0368 0.01842,0.0706 0.02762,0.10128 0.01535,0.0522 0.06752,0.0829 0.119697,0.0675 0.05832,-0.0153 0.08594,-0.0675 0.07059,-0.11969 z m -0.343747,-0.50335 h -0.484929 c 0.08287,-0.30385 0.178012,-0.66294 0.242465,-0.88392 0.05831,0.22098 0.159597,0.58007 0.242464,0.88392 z"
           style="font-size:3.06917px;line-height:1.25"
           id="path17054" />
      </g>
      <g
         aria-label="RES CV"
         id="text20481"
         style="font-weight:bold;font-stretch:condensed;line-height:0%;font-family:Miso;-inkscape-font-specification:'Miso Bold Condensed';letter-spacing:-0.0142462px;word-spacing:0px;display:inline;opacity:1;fill:#ffffff;stroke-width:0.282223;enable-background:new"
         inkscape:transform-center-x="0.5333753"
         inkscape:transform-center-y="12.799991">
        <path
           d="m 12.759973,261.02047 v -0.17187 c 0,-0.25781 -0.208704,-0.46652 -0.466514,-0.46652 h -0.368301 c -0.05218,0 -0.09821,0.0399 -0.09821,0.0982 v 1.76784 c 0,0.0583 0.04604,0.0982 0.09821,0.0982 0.05832,0 0.09821,-0.0399 0.09821,-0.0982 v -0.76115 h 0.251672 l 0.29464,0.79491 c 0.02148,0.0522 0.07673,0.0798 0.125836,0.0583 0.05218,-0.0215 0.0798,-0.0767 0.05831,-0.12583 l -0.282363,-0.76116 c 0.171873,-0.0706 0.288502,-0.23632 0.288502,-0.43275 z m -0.466514,0.27009 h -0.270087 v -0.71205 h 0.270087 c 0.150389,0 0.270087,0.12277 0.270087,0.27009 v 0.17187 c 0,0.15039 -0.119698,0.27009 -0.270087,0.27009 z"
           style="font-size:3.06917px;line-height:1.25"
           id="path17039" />
        <path
           d="m 13.089469,260.4803 v 1.75556 c 0,0.0583 0.0399,0.0982 0.09821,0.0982 h 0.613834 c 0.05831,0 0.09821,-0.0399 0.09821,-0.0982 0,-0.0583 -0.0399,-0.0982 -0.09821,-0.0982 h -0.51562 v -0.71205 h 0.454237 c 0.05831,0 0.09821,-0.0399 0.09821,-0.0982 0,-0.0583 -0.0399,-0.0982 -0.09821,-0.0982 h -0.454237 v -0.65066 h 0.51562 c 0.05831,0 0.09821,-0.0399 0.09821,-0.0982 0,-0.0583 -0.0399,-0.0982 -0.09821,-0.0982 h -0.613834 c -0.05831,0 -0.09821,0.0399 -0.09821,0.0982 z"
           style="font-size:3.06917px;line-height:1.25"
           id="path17041" />
        <path
           d="m 14.732568,262.09161 c -0.06752,0.0522 -0.144251,0.0675 -0.227118,0.0522 -0.08287,-0.0154 -0.150389,-0.0645 -0.190289,-0.13505 -0.02762,-0.0491 -0.08901,-0.0644 -0.135043,-0.0368 -0.04604,0.0276 -0.06138,0.0859 -0.03683,0.13505 0.07059,0.11969 0.187219,0.20256 0.322263,0.23019 0.135043,0.0276 0.276225,-0.006 0.386715,-0.089 0.11049,-0.0829 0.178012,-0.2087 0.190289,-0.34682 0.0092,-0.13811 -0.0399,-0.27315 -0.135044,-0.37137 l -0.491067,-0.50641 c -0.05525,-0.0583 -0.0798,-0.1289 -0.07366,-0.2087 0.0061,-0.0829 0.0399,-0.14732 0.104352,-0.19336 0.06445,-0.0491 0.138112,-0.0645 0.217911,-0.0491 0.0798,0.0154 0.141182,0.0583 0.181081,0.12891 0.02455,0.046 0.08594,0.0645 0.131974,0.0368 0.04911,-0.0276 0.06445,-0.089 0.03683,-0.13505 -0.07059,-0.11969 -0.178012,-0.19642 -0.309986,-0.22405 -0.131974,-0.0276 -0.267018,0.003 -0.374439,0.0859 -0.107421,0.0829 -0.174943,0.20257 -0.18415,0.33761 -0.01228,0.13197 0.03376,0.26395 0.128905,0.35909 l 0.491067,0.50335 c 0.05831,0.0583 0.08901,0.13811 0.0798,0.22098 -0.0061,0.0859 -0.04297,0.15346 -0.11356,0.20563 z"
           style="font-size:3.06917px;line-height:1.25"
           id="path17043" />
        <path
           d="m 16.247867,262.33101 c 0.202565,0.0552 0.420476,-0.0338 0.524828,-0.21791 0.02455,-0.046 0.0092,-0.10743 -0.03683,-0.13505 -0.04604,-0.0245 -0.107421,-0.009 -0.135044,0.0368 -0.06138,0.10742 -0.18415,0.1596 -0.303848,0.12584 -0.119697,-0.0338 -0.199496,-0.13811 -0.199496,-0.26088 v -1.04352 c 0,-0.12277 0.0798,-0.22712 0.199496,-0.26088 0.119698,-0.0338 0.242465,0.0184 0.303848,0.12584 0.02762,0.046 0.08901,0.0645 0.135044,0.0368 0.04604,-0.0276 0.06138,-0.089 0.03683,-0.13505 -0.107421,-0.18108 -0.319194,-0.27622 -0.524828,-0.21791 -0.208704,0.0583 -0.346816,0.2394 -0.346816,0.45117 v 1.04352 c 0,0.21177 0.138112,0.39285 0.346816,0.45117 z"
           style="font-size:3.06917px;line-height:1.25"
           id="path17045" />
        <path
           d="m 17.000908,260.49564 0.491067,1.78012 c 0.01228,0.0399 0.04911,0.0706 0.09514,0.0706 0.04604,0 0.08287,-0.0307 0.09208,-0.0706 l 0.491067,-1.78012 c 0.01535,-0.0522 -0.01535,-0.10742 -0.06752,-0.12276 -0.05218,-0.0123 -0.107421,0.0184 -0.119697,0.0706 -0.05218,0.18722 -0.104352,0.37137 -0.153459,0.54938 -0.08287,0.30078 -0.18415,0.66294 -0.242464,0.88699 -0.06752,-0.22405 -0.162666,-0.58314 -0.245534,-0.88699 -0.04911,-0.17801 -0.101283,-0.36216 -0.153458,-0.54938 -0.01228,-0.0522 -0.06752,-0.0829 -0.119698,-0.0706 -0.05218,0.0153 -0.08287,0.0706 -0.06752,0.12276 z"
           style="font-size:3.06917px;line-height:1.25"
           id="path17047" />
      </g>
      <g
         transform="matrix(-0.26458333,0,0,0.26458333,173.29861,112.98241)"
         id="g20489"
         style="display:inline"
         inkscape:export-xdpi="600"
         inkscape:export-ydpi="600">
        <path
           inkscape:export-ydpi="600"
           inkscape:export-xdpi="600"
           inkscape:export-filename="/home/diego/Escritorio/Hex_Mix_VCA.png"
           sodipodi:type="arc"
           style="display:inline;fill:none;stroke:#ffffff;stroke-width:1.51181;stroke-linecap:butt;stroke-linejoin:miter;stroke-miterlimit:4;stroke-dasharray:none;stroke-opacity:1;enable-background:new"
           id="path20483"
           sodipodi:cx="-570.401"
           sodipodi:cy="265.14038"
           sodipodi:rx="23.453003"
           sodipodi:ry="23.455235"
           transform="scale(-1,1)"
           sodipodi:start="2.0832953"
           sodipodi:end="1.0646776"
           sodipodi:open="true"
           inkscape:transform-center-x="0.046773228"
           inkscape:transform-center-y="-0.31486632"
           sodipodi:arc-type="arc"
           d="m -581.90134,285.58213 a 23.453003,23.455235 0 0 1 -11.17735,-26.42276 23.453003,23.455235 0 0 1 22.75251,-17.4741 23.453003,23.455235 0 0 1 22.64056,17.61892 23.453003,23.455235 0 0 1 -11.34569,26.35091" />
        <path
           inkscape:export-ydpi="600"
           inkscape:export-xdpi="600"
           inkscape:export-filename="/home/diego/Escritorio/Hex_Mix_VCA.png"
           id="path20485"
           style="display:inline;fill:#ffffff;fill-opacity:1;fill-rule:nonzero;stroke:none;stroke-width:1.06667;enable-background:new"
           d="m 557.98884,282.94565 c 1.11001,-0.64082 2.52953,-0.26046 3.17038,0.84945 0.64092,1.11012 0.26053,2.5297 -0.84945,3.17045 -1.11008,0.64096 -2.52958,0.2606 -3.17039,-0.84945 -0.64094,-1.10998 -0.26057,-2.52952 0.84946,-3.17045"
           inkscape:connector-curvature="0" />
        <path
           inkscape:export-ydpi="600"
           inkscape:export-xdpi="600"
           inkscape:export-filename="/home/diego/Escritorio/Hex_Mix_VCA.png"
           id="path20487"
           style="display:inline;fill:#ffffff;fill-opacity:1;fill-rule:nonzero;stroke:none;stroke-width:1.06667;enable-background:new"
           d="m 579.46512,284.95559 c 9e-5,-1.28189 1.03935,-2.32117 2.32127,-2.32125 1.282,8e-5 2.32134,1.03938 2.32129,2.32129 4e-5,1.28201 -1.03925,2.3213 -2.32126,2.32126 -1.28192,4e-5 -2.32121,-1.03928 -2.3213,-2.3213"
           inkscape:connector-curvature="0" />
      </g>
      <g
         aria-label="IN 2"
         id="text20493"
         style="font-weight:bold;font-stretch:condensed;line-height:0%;font-family:Miso;-inkscape-font-specification:'Miso Bold Condensed';letter-spacing:-0.0142462px;word-spacing:0px;display:inline;opacity:1;fill:#ffffff;stroke-width:0.282223;enable-background:new"
         inkscape:transform-center-x="0.53337455"
         inkscape:transform-center-y="12.800024">
        <path
           d="m 3.3531325,275.85392 c 0.058314,0 0.098213,-0.0399 0.098213,-0.0982 v -1.78012 c 0,-0.0583 -0.039899,-0.0982 -0.098213,-0.0982 -0.052176,0 -0.098213,0.0399 -0.098213,0.0982 v 1.78012 c 0,0.0583 0.046038,0.0982 0.098213,0.0982 z"
           style="font-size:3.06917px;line-height:1.25"
           id="path17011" />
        <path
           d="m 4.8335686,275.85085 c 0.046038,-0.009 0.076729,-0.0491 0.076729,-0.0951 v -1.78012 c 0,-0.0583 -0.039899,-0.0982 -0.098213,-0.0982 -0.058314,0 -0.098213,0.0399 -0.098213,0.0982 v 1.35043 c -0.1135593,-0.23632 -0.2854328,-0.58928 -0.4235455,-0.87471 -0.082868,-0.1688 -0.1657352,-0.34375 -0.2486028,-0.51869 -0.021484,-0.0399 -0.064453,-0.0614 -0.1104901,-0.0522 -0.046038,0.009 -0.076729,0.0491 -0.076729,0.0951 v 1.78012 c 0,0.0583 0.039899,0.0982 0.098213,0.0982 0.058314,0 0.098213,-0.0399 0.098213,-0.0982 v -1.35044 c 0.1135592,0.23633 0.2823636,0.58928 0.4204762,0.87472 0.082868,0.1688 0.1657352,0.34374 0.251672,0.51869 0.021484,0.0399 0.064453,0.0645 0.1104901,0.0522 z"
           style="font-size:3.06917px;line-height:1.25"
           id="path17013" />
        <path
           d="m 5.9130436,274.24568 c 0.046038,0.0276 0.107421,0.009 0.1350435,-0.0368 0.033761,-0.0614 0.089006,-0.10436 0.1595968,-0.12584 0.070591,-0.0184 0.1381127,-0.009 0.2025652,0.0245 0.064453,0.0338 0.107421,0.089 0.1289052,0.1596 0.021484,0.0706 0.015346,0.13811 -0.018415,0.20257 l -0.6445257,1.22766 c -0.018415,0.0307 -0.018415,0.0645 0.00307,0.0982 0.015346,0.0307 0.042968,0.046 0.082868,0.046 h 0.6874941 c 0.052176,0 0.098213,-0.0399 0.098213,-0.0982 0,-0.0583 -0.046038,-0.0982 -0.098213,-0.0982 H 6.1248163 c 0.058314,-0.11049 0.1994961,-0.38058 0.3284012,-0.62611 0.07366,-0.14425 0.1534585,-0.29464 0.2393953,-0.45731 0.058314,-0.11356 0.070591,-0.23326 0.033761,-0.35295 -0.033761,-0.1197 -0.1135593,-0.21485 -0.2209803,-0.27316 -0.1074209,-0.0583 -0.2301877,-0.0737 -0.3498854,-0.0399 -0.1227668,0.0307 -0.2148419,0.10128 -0.2792944,0.21484 -0.027623,0.046 -0.00921,0.10742 0.03683,0.13505 z"
           style="font-size:3.06917px;line-height:1.25"
           id="path17015" />
      </g>
      <g
         aria-label="IN 1"
         id="text20497"
         style="font-weight:bold;font-stretch:condensed;line-height:0%;font-family:Miso;-inkscape-font-specification:'Miso Bold Condensed';letter-spacing:-0.0142462px;word-spacing:0px;display:inline;opacity:1;fill:#ffffff;stroke-width:0.282223;enable-background:new"
         inkscape:transform-center-x="0.53338101"
         inkscape:transform-center-y="12.800039">
        <path
           d="m 3.482035,262.34632 c 0.058314,0 0.098213,-0.0399 0.098213,-0.0982 v -1.78012 c 0,-0.0583 -0.039899,-0.0982 -0.098213,-0.0982 -0.052176,0 -0.098214,0.0399 -0.098214,0.0982 v 1.78012 c 0,0.0583 0.046038,0.0982 0.098214,0.0982 z"
           style="font-size:3.06917px;line-height:1.25"
           id="path17004" />
        <path
           d="m 4.962471,262.34325 c 0.046038,-0.009 0.076729,-0.0491 0.076729,-0.0951 v -1.78012 c 0,-0.0583 -0.039899,-0.0982 -0.098213,-0.0982 -0.058314,0 -0.098214,0.0399 -0.098214,0.0982 v 1.35043 c -0.1135593,-0.23632 -0.2854328,-0.58928 -0.4235454,-0.87471 -0.082868,-0.1688 -0.1657352,-0.34375 -0.2486028,-0.51869 -0.021484,-0.0399 -0.064453,-0.0614 -0.1104901,-0.0522 -0.046038,0.009 -0.076729,0.0491 -0.076729,0.0951 v 1.78012 c 0,0.0583 0.039899,0.0982 0.098213,0.0982 0.058314,0 0.098213,-0.0399 0.098213,-0.0982 v -1.35044 c 0.1135593,0.23633 0.2823636,0.58928 0.4204763,0.87472 0.082868,0.1688 0.1657352,0.34374 0.2516719,0.51869 0.021484,0.0399 0.064453,0.0644 0.1104901,0.0522 z"
           style="font-size:3.06917px;line-height:1.25"
           id="path17006" />
        <path
           d="m 6.2199579,260.90688 0.2025652,-0.20256 v 1.54379 c 0,0.0583 0.039899,0.0982 0.098213,0.0982 0.052176,0 0.098213,-0.0399 0.098213,-0.0982 v -1.78012 c 0,-0.046 -0.021484,-0.0767 -0.061383,-0.0921 -0.03683,-0.0123 -0.079798,-0.006 -0.107421,0.0215 l -0.3683004,0.3683 c -0.018415,0.0215 -0.027622,0.043 -0.027622,0.0706 0,0.0276 0.00921,0.0491 0.027622,0.0706 0.021484,0.0184 0.042968,0.0276 0.070591,0.0276 0.027622,0 0.049107,-0.009 0.067522,-0.0276 z"
           style="font-size:3.06917px;line-height:1.25"
           id="path17008" />
      </g>
      <g
         id="g20517"
         transform="translate(2.27046,-1.7610089)"
         inkscape:export-xdpi="600"
         inkscape:export-ydpi="600">
        <g
           transform="matrix(1,0,0,0.66954358,-2.5049327,79.494772)"
           id="g20511"
           style="display:inline;stroke-width:0.427739;stroke-miterlimit:10;stroke-dasharray:none"
           inkscape:export-xdpi="600"
           inkscape:export-ydpi="600">
          <path
             inkscape:connector-curvature="0"
             id="path20499"
             d="m 10.902444,214.19696 -1.3581685,-7e-5"
             style="display:inline;opacity:1;fill:none;stroke:#ffffff;stroke-width:0.427739;stroke-linecap:round;stroke-linejoin:miter;stroke-miterlimit:10;stroke-dasharray:none;stroke-opacity:1"
             sodipodi:nodetypes="cc" />
          <path
             style="display:inline;opacity:1;fill:none;stroke:#ffffff;stroke-width:0.427739;stroke-linecap:round;stroke-linejoin:miter;stroke-miterlimit:10;stroke-dasharray:none;stroke-opacity:1"
             d="M 10.902444,219.21714 H 9.5442755"
             id="path20501"
             inkscape:connector-curvature="0" />
          <path
             inkscape:connector-curvature="0"
             id="path20503"
             d="M 10.902444,224.23735 H 9.5442755"
             style="display:inline;opacity:1;fill:none;stroke:#ffffff;stroke-width:0.427739;stroke-linecap:round;stroke-linejoin:miter;stroke-miterlimit:10;stroke-dasharray:none;stroke-opacity:1" />
          <path
             style="display:inline;opacity:1;fill:none;stroke:#ffffff;stroke-width:0.54995;stroke-linecap:round;stroke-linejoin:miter;stroke-miterlimit:10;stroke-dasharray:none;stroke-opacity:1"
             d="M 10.958712,229.25757 H 9.4880089"
             id="path20505"
             inkscape:connector-curvature="0" />
          <path
             style="display:inline;opacity:1;fill:none;stroke:#ffffff;stroke-width:0.427739;stroke-linecap:round;stroke-linejoin:miter;stroke-miterlimit:10;stroke-dasharray:none;stroke-opacity:1"
             d="M 10.902444,234.27779 H 9.5442755"
             id="path20507"
             inkscape:connector-curvature="0" />
          <path
             inkscape:connector-curvature="0"
             id="path20509"
             d="M 10.902444,239.29801 H 9.5442755"
             style="display:inline;opacity:1;fill:none;stroke:#ffffff;stroke-width:0.427739;stroke-linecap:round;stroke-linejoin:miter;stroke-miterlimit:10;stroke-dasharray:none;stroke-opacity:1" />
        </g>
        <g
           transform="matrix(1,0,0,-0.66954358,2.9763623,386.42723)"
           id="g20515"
           style="display:inline;stroke-width:0.427739;stroke-miterlimit:10;stroke-dasharray:none"
           inkscape:export-xdpi="600"
           inkscape:export-ydpi="600">
          <path
             sodipodi:nodetypes="cc"
             style="display:inline;opacity:1;fill:none;stroke:#ffffff;stroke-width:0.427739;stroke-linecap:round;stroke-linejoin:miter;stroke-miterlimit:10;stroke-dasharray:none;stroke-opacity:1"
             d="m 5.4211497,214.19696 -1.35817,-7e-5"
             id="path20513"
             inkscape:connector-curvature="0" />
        </g>
      </g>
      <g
         aria-label="IN 3"
         id="text20521"
         style="font-weight:bold;font-stretch:condensed;line-height:0%;font-family:Miso;-inkscape-font-specification:'Miso Bold Condensed';letter-spacing:-0.0142462px;word-spacing:0px;display:inline;opacity:1;fill:#ffffff;stroke-width:0.282223;enable-background:new"
         inkscape:transform-center-x="0.53337455"
         inkscape:transform-center-y="12.800024">
        <path
           d="m 3.3746131,289.38416 c 0.058314,0 0.098213,-0.0399 0.098213,-0.0982 v -1.78012 c 0,-0.0583 -0.039899,-0.0982 -0.098213,-0.0982 -0.052176,0 -0.098213,0.0399 -0.098213,0.0982 v 1.78012 c 0,0.0583 0.046038,0.0982 0.098213,0.0982 z"
           style="font-size:3.06917px;line-height:1.25"
           id="path17018" />
        <path
           d="m 4.8550492,289.38109 c 0.046037,-0.009 0.076729,-0.0491 0.076729,-0.0951 v -1.78012 c 0,-0.0583 -0.039899,-0.0982 -0.098213,-0.0982 -0.058314,0 -0.098213,0.0399 -0.098213,0.0982 v 1.35044 c -0.1135593,-0.23633 -0.2854328,-0.58928 -0.4235454,-0.87472 -0.082868,-0.1688 -0.1657352,-0.34374 -0.2486028,-0.51869 -0.021484,-0.0399 -0.064453,-0.0614 -0.1104901,-0.0522 -0.046038,0.009 -0.076729,0.0491 -0.076729,0.0951 v 1.78012 c 0,0.0583 0.039899,0.0982 0.098213,0.0982 0.058314,0 0.098213,-0.0399 0.098213,-0.0982 v -1.35043 c 0.1135593,0.23632 0.2823637,0.58928 0.4204763,0.87471 0.082868,0.1688 0.1657352,0.34375 0.2516719,0.51869 0.021484,0.0399 0.064453,0.0645 0.1104902,0.0522 z"
           style="font-size:3.06917px;line-height:1.25"
           id="path17020" />
        <path
           d="m 6.3304471,289.17853 c -0.1196976,0.0338 -0.2424644,-0.0184 -0.3038478,-0.12584 -0.027623,-0.046 -0.089006,-0.0614 -0.1350435,-0.0368 -0.046038,0.0276 -0.064453,0.089 -0.03683,0.13505 0.1043518,0.18415 0.3222629,0.27315 0.5248281,0.21791 0.2087036,-0.0583 0.3468162,-0.2394 0.3468162,-0.45117 v -0.18415 c 0,-0.15039 -0.070591,-0.28236 -0.181081,-0.3683 0.1104901,-0.0859 0.181081,-0.21791 0.181081,-0.3683 v -0.12277 c 0,-0.21177 -0.1381126,-0.39285 -0.3468162,-0.45117 -0.2056344,-0.0583 -0.4174071,0.0368 -0.5248281,0.21792 -0.027623,0.046 -0.00921,0.10742 0.03683,0.13504 0.046037,0.0276 0.1074209,0.009 0.1350435,-0.0368 0.061383,-0.10742 0.1841502,-0.1596 0.3038478,-0.12584 0.1196976,0.0338 0.199496,0.13812 0.199496,0.26088 v 0.12277 c 0,0.15039 -0.1227668,0.27009 -0.2700869,0.27009 -0.058314,0 -0.098213,0.0399 -0.098213,0.0982 0,0.0583 0.039899,0.0982 0.098213,0.0982 0.1473201,0 0.2700869,0.12277 0.2700869,0.27009 v 0.18415 c 0,0.12277 -0.079798,0.22712 -0.199496,0.26088 z"
           style="font-size:3.06917px;line-height:1.25"
           id="path17022" />
      </g>
      <rect
         ry="0.63522065"
         rx="0.63522077"
         y="264.80753"
         x="-26.967175"
         height="7.3849792"
         width="3.9343464"
         id="rect20523"
         style="display:inline;fill:none;fill-opacity:1;stroke:#ffffff;stroke-width:0.273094;stroke-linecap:round;stroke-miterlimit:4;stroke-dasharray:none;stroke-dashoffset:0;stroke-opacity:1"
         inkscape:transform-center-x="76.090537"
         inkscape:transform-center-y="1.6416594"
         transform="scale(-1,1)"
         inkscape:export-xdpi="600"
         inkscape:export-ydpi="600" />
      <path
         inkscape:transform-center-y="-0.27068569"
         inkscape:transform-center-x="3.9005803e-06"
         inkscape:randomized="0"
         inkscape:rounded="0"
         inkscape:flatsided="false"
         sodipodi:arg2="2.0943951"
         sodipodi:arg1="1.0471976"
         sodipodi:r2="0.71334529"
         sodipodi:r1="1.4266906"
         sodipodi:cy="242.88544"
         sodipodi:cx="-83.353348"
         sodipodi:sides="3"
         id="path20525"
         style="fill:#ffffff;fill-opacity:1;stroke:none;stroke-width:0.349183;stroke-linecap:round;stroke-miterlimit:4;stroke-dasharray:none;stroke-opacity:1"
         sodipodi:type="star"
         transform="matrix(0,0.75891534,0.75891534,0,-159.32947,327.08526)"
         d="m -82.640003,244.12099 -1.070017,-0.61778 -1.070018,-0.61777 1.070018,-0.61778 1.070018,-0.61777 0,1.23555 z"
         inkscape:export-xdpi="600"
         inkscape:export-ydpi="600" />
      <g
         id="g20545"
         transform="translate(12.29268,-1.7610089)"
         inkscape:export-xdpi="600"
         inkscape:export-ydpi="600">
        <g
           transform="matrix(1,0,0,0.66954358,-2.5049327,79.494772)"
           id="g20539"
           style="display:inline;stroke-width:0.427739;stroke-miterlimit:10;stroke-dasharray:none"
           inkscape:export-xdpi="600"
           inkscape:export-ydpi="600">
          <path
             inkscape:connector-curvature="0"
             id="path20527"
             d="m 10.902444,214.19696 -1.3581685,-7e-5"
             style="display:inline;opacity:1;fill:none;stroke:#ffffff;stroke-width:0.427739;stroke-linecap:round;stroke-linejoin:miter;stroke-miterlimit:10;stroke-dasharray:none;stroke-opacity:1"
             sodipodi:nodetypes="cc" />
          <path
             style="display:inline;opacity:1;fill:none;stroke:#ffffff;stroke-width:0.427739;stroke-linecap:round;stroke-linejoin:miter;stroke-miterlimit:10;stroke-dasharray:none;stroke-opacity:1"
             d="M 10.902444,219.21714 H 9.5442755"
             id="path20529"
             inkscape:connector-curvature="0" />
          <path
             inkscape:connector-curvature="0"
             id="path20531"
             d="M 10.902444,224.23735 H 9.5442755"
             style="display:inline;opacity:1;fill:none;stroke:#ffffff;stroke-width:0.427739;stroke-linecap:round;stroke-linejoin:miter;stroke-miterlimit:10;stroke-dasharray:none;stroke-opacity:1" />
          <path
             style="display:inline;opacity:1;fill:none;stroke:#ffffff;stroke-width:0.54995;stroke-linecap:round;stroke-linejoin:miter;stroke-miterlimit:10;stroke-dasharray:none;stroke-opacity:1"
             d="M 10.958712,229.25757 H 9.4880089"
             id="path20533"
             inkscape:connector-curvature="0" />
          <path
             style="display:inline;opacity:1;fill:none;stroke:#ffffff;stroke-width:0.427739;stroke-linecap:round;stroke-linejoin:miter;stroke-miterlimit:10;stroke-dasharray:none;stroke-opacity:1"
             d="M 10.902444,234.27779 H 9.5442755"
             id="path20535"
             inkscape:connector-curvature="0" />
          <path
             inkscape:connector-curvature="0"
             id="path20537"
             d="M 10.902444,239.29801 H 9.5442755"
             style="display:inline;opacity:1;fill:none;stroke:#ffffff;stroke-width:0.427739;stroke-linecap:round;stroke-linejoin:miter;stroke-miterlimit:10;stroke-dasharray:none;stroke-opacity:1" />
        </g>
        <g
           transform="matrix(1,0,0,-0.66954358,2.9763623,386.42723)"
           id="g20543"
           style="display:inline;stroke-width:0.427739;stroke-miterlimit:10;stroke-dasharray:none"
           inkscape:export-xdpi="600"
           inkscape:export-ydpi="600">
          <path
             sodipodi:nodetypes="cc"
             style="display:inline;opacity:1;fill:none;stroke:#ffffff;stroke-width:0.427739;stroke-linecap:round;stroke-linejoin:miter;stroke-miterlimit:10;stroke-dasharray:none;stroke-opacity:1"
             d="m 5.4211497,214.19696 -1.35817,-7e-5"
             id="path20541"
             inkscape:connector-curvature="0" />
        </g>
      </g>
      <path
         style="fill:none;stroke:#ffffff;stroke-width:0.264583px;stroke-linecap:round;stroke-linejoin:miter;stroke-opacity:1"
         d="m 20.472514,268.5 h 1.8554"
         id="path20559"
         sodipodi:nodetypes="cc"
         inkscape:connector-curvature="0"
         inkscape:export-xdpi="600"
         inkscape:export-ydpi="600" />
      <path
         inkscape:connector-curvature="0"
         d="m 9.079254,212.75295 c 0.328531,-0.18966 0.748664,-0.0771 0.938356,0.25143 0.189686,0.32856 0.07711,0.74871 -0.251437,0.93837 -0.328548,0.1897 -0.748675,0.0771 -0.93835,-0.25143 -0.189697,-0.32852 -0.07712,-0.74867 0.251431,-0.93837"
         style="display:inline;fill:#ffffff;fill-opacity:1;fill-rule:nonzero;stroke:none;stroke-width:1.06667;enable-background:new"
         id="path20561"
         inkscape:export-xdpi="600"
         inkscape:export-ydpi="600" />
      <path
         inkscape:connector-curvature="0"
         d="m 19.864994,213.34783 c 1.7e-5,-0.37941 0.307622,-0.68701 0.687035,-0.68703 0.379442,2e-5 0.687064,0.30763 0.687041,0.68705 1.7e-5,0.37944 -0.307588,0.68704 -0.687029,0.68703 -0.379413,1e-5 -0.68703,-0.3076 -0.687047,-0.68705"
         style="display:inline;fill:#ffffff;fill-opacity:1;fill-rule:nonzero;stroke:none;stroke-width:1.06667;enable-background:new"
         id="path20563"
         inkscape:export-xdpi="600"
         inkscape:export-ydpi="600" />
      <g
         aria-label="PONY VCF"
         id="text20567"
         style="font-weight:bold;font-stretch:condensed;line-height:0%;font-family:Miso;-inkscape-font-specification:'Miso Bold Condensed';letter-spacing:0px;word-spacing:0px;display:inline;fill:#ffffff;stroke-width:0.282223">
        <path
           d="m 12.534705,170.10494 v 2.79986 c 0,0.0924 0.06319,0.15555 0.155547,0.15555 0.09236,0 0.155548,-0.0632 0.155548,-0.15555 v -1.20549 h 0.427757 c 0.408313,0 0.738852,-0.33054 0.738852,-0.73885 v -0.27221 c 0,-0.40832 -0.330539,-0.73885 -0.738852,-0.73885 h -0.583305 c -0.09236,0 -0.155547,0.0632 -0.155547,0.15554 z m 1.166608,0.58331 v 0.27221 c 0,0.23818 -0.194434,0.42775 -0.427756,0.42775 H 12.8458 v -1.12772 h 0.427757 c 0.233322,0 0.427756,0.19444 0.427756,0.42776 z"
           style="font-size:4.86087px;line-height:1.25"
           id="path17244" />
        <path
           d="m 15.159572,173.06035 c 0.408314,0 0.738853,-0.33054 0.738853,-0.73885 v -1.6527 c 0,-0.40831 -0.330539,-0.73885 -0.738853,-0.73885 -0.408313,0 -0.738852,0.33054 -0.738852,0.73885 v 1.6527 c 0,0.40831 0.330539,0.73885 0.738852,0.73885 z m 0,-2.8193 c 0.233322,0 0.427757,0.19443 0.427757,0.42775 v 1.6527 c 0,0.23818 -0.194435,0.42776 -0.427757,0.42776 -0.238182,0 -0.427756,-0.18958 -0.427756,-0.42776 v -1.6527 c 0,-0.23332 0.189574,-0.42775 0.427756,-0.42775 z"
           style="font-size:4.86087px;line-height:1.25"
           id="path17246" />
        <path
           d="m 18.051782,173.05549 c 0.07291,-0.0146 0.121522,-0.0778 0.121522,-0.15069 v -2.8193 c 0,-0.0924 -0.06319,-0.15555 -0.155548,-0.15555 -0.09236,0 -0.155548,0.0632 -0.155548,0.15555 v 2.13878 c -0.179852,-0.37428 -0.45206,-0.93328 -0.6708,-1.38535 -0.131243,-0.26734 -0.262487,-0.54441 -0.39373,-0.82148 -0.03403,-0.0632 -0.102078,-0.0972 -0.174991,-0.0826 -0.07291,0.0146 -0.121522,0.0778 -0.121522,0.15069 v 2.8193 c 0,0.0924 0.06319,0.15555 0.155548,0.15555 0.09236,0 0.155548,-0.0632 0.155548,-0.15555 v -2.13878 c 0.179852,0.37429 0.4472,0.93329 0.665939,1.38535 0.131243,0.26735 0.262487,0.54442 0.398591,0.82149 0.03403,0.0632 0.102078,0.10207 0.174991,0.0826 z"
           style="font-size:4.86087px;line-height:1.25"
           id="path17248" />
        <path
           d="m 19.325328,171.48543 v 1.41937 c 0,0.0924 0.06319,0.15555 0.155548,0.15555 0.09236,0 0.155548,-0.0632 0.155548,-0.15555 v -1.41937 l 0.665939,-1.33188 c 0.03889,-0.0729 0.0049,-0.17013 -0.07291,-0.20902 -0.07777,-0.034 -0.170131,-0.005 -0.209018,0.0729 l -0.539556,1.07911 -0.539557,-1.07911 c -0.03889,-0.0778 -0.136104,-0.10694 -0.209017,-0.0729 -0.07777,0.0389 -0.1118,0.13611 -0.07291,0.20902 z"
           style="font-size:4.86087px;line-height:1.25"
           id="path17250" />
        <path
           d="m 21.556457,170.12925 0.777739,2.8193 c 0.01944,0.0632 0.07777,0.1118 0.150687,0.1118 0.07291,0 0.131244,-0.0486 0.145826,-0.1118 l 0.77774,-2.8193 c 0.0243,-0.0826 -0.02431,-0.17013 -0.106939,-0.19444 -0.08263,-0.0194 -0.170131,0.0292 -0.189574,0.1118 -0.08263,0.29652 -0.16527,0.58817 -0.243044,0.8701 -0.131243,0.47636 -0.291652,1.04995 -0.384009,1.40479 -0.106939,-0.35484 -0.257626,-0.92357 -0.388869,-1.40479 -0.07777,-0.28193 -0.160409,-0.57358 -0.243044,-0.8701 -0.01944,-0.0826 -0.106939,-0.13124 -0.189574,-0.1118 -0.08263,0.0243 -0.131243,0.1118 -0.106939,0.19444 z"
           style="font-size:4.86087px;line-height:1.25"
           id="path17252" />
        <path
           d="m 24.390344,173.03605 c 0.320818,0.0875 0.665939,-0.0535 0.831209,-0.34512 0.03889,-0.0729 0.01458,-0.17013 -0.05833,-0.21388 -0.07291,-0.0389 -0.170131,-0.0146 -0.213879,0.0583 -0.09722,0.17013 -0.291652,0.25276 -0.481226,0.19929 -0.189574,-0.0535 -0.315956,-0.21874 -0.315956,-0.41317 v -1.6527 c 0,-0.19443 0.126382,-0.3597 0.315956,-0.41317 0.189574,-0.0535 0.384009,0.0292 0.481226,0.1993 0.04375,0.0729 0.140965,0.10207 0.213879,0.0583 0.07291,-0.0437 0.09722,-0.14097 0.05833,-0.21388 -0.17013,-0.28679 -0.505531,-0.43748 -0.831209,-0.34512 -0.330539,0.0923 -0.549278,0.37914 -0.549278,0.71454 v 1.6527 c 0,0.3354 0.218739,0.62219 0.549278,0.71455 z"
           style="font-size:4.86087px;line-height:1.25"
           id="path17254" />
        <path
           d="m 25.926371,173.04091 c 0.09236,0 0.155548,-0.0632 0.155548,-0.15555 v -1.28327 h 0.719408 c 0.09236,0 0.155548,-0.0632 0.155548,-0.15555 0,-0.0924 -0.06319,-0.15554 -0.155548,-0.15554 h -0.719408 v -1.03051 h 0.816626 c 0.09236,0 0.155548,-0.0632 0.155548,-0.15555 0,-0.0924 -0.06319,-0.15554 -0.155548,-0.15554 h -0.972174 c -0.08263,0 -0.155548,0.0632 -0.155548,0.15554 v 2.78042 c 0,0.0924 0.07291,0.15555 0.155548,0.15555 z"
           style="font-size:4.86087px;line-height:1.25"
           id="path17256" />
      </g>
      <path
         sodipodi:open="true"
         sodipodi:arc-type="arc"
         sodipodi:end="1.0456089"
         sodipodi:start="2.0937866"
         sodipodi:ry="11.203553"
         sodipodi:rx="11.202512"
         sodipodi:cy="203.5834"
         sodipodi:cx="-15.000001"
         sodipodi:type="arc"
         style="display:inline;fill:none;stroke:#ffffff;stroke-width:0.437;stroke-linecap:butt;stroke-linejoin:miter;stroke-miterlimit:4;stroke-dasharray:none;stroke-opacity:1;enable-background:new"
         id="path20569"
         transform="scale(-1,1)"
         d="m -20.595352,213.28937 a 11.202512,11.203553 0 0 1 -5.227915,-12.59642 11.202512,11.203553 0 0 1 10.810959,-8.31309 11.202512,11.203553 0 0 1 10.829197,8.28931 11.202512,11.203553 0 0 1 -5.2002286,12.60788"
         inkscape:export-xdpi="600"
         inkscape:export-ydpi="600" />
      <text
         id="text20573"
         y="276.62949"
         x="24.999737"
         style="font-style:normal;font-variant:normal;font-weight:bold;font-stretch:condensed;line-height:0%;font-family:Miso;-inkscape-font-specification:'Sans Bold';text-align:center;letter-spacing:0px;word-spacing:0px;text-anchor:middle;display:inline;fill:#ffffff;fill-opacity:1;stroke:none;stroke-width:0.264583"
         xml:space="preserve"
         transform="scale(1.0000115,0.9999885)"
         inkscape:export-xdpi="600"
         inkscape:export-ydpi="600"><tspan
           y="276.62949"
           x="24.999737"
           sodipodi:role="line"
           style="font-size:2.50794px;line-height:83%;text-align:center;text-anchor:middle;stroke-width:0.264583"
           id="tspan20571">VCA</tspan></text>
      <g
         aria-label="CV1 TO "
         transform="scale(1.0000115,0.9999885)"
         id="text20579"
         style="font-weight:bold;font-stretch:condensed;line-height:0%;font-family:Miso;-inkscape-font-specification:'Sans Bold';text-align:center;letter-spacing:0px;word-spacing:0px;text-anchor:middle;display:inline;fill:#ffffff;stroke-width:0.264583">
        <path
           d="m 22.630995,274.51028 c 0.165525,0.0451 0.343588,-0.0276 0.428858,-0.17806 0.02006,-0.0376 0.0075,-0.0878 -0.03009,-0.11035 -0.03762,-0.0201 -0.08778,-0.008 -0.110349,0.0301 -0.05016,0.0878 -0.150477,0.13041 -0.248286,0.10283 -0.09781,-0.0276 -0.163017,-0.11286 -0.163017,-0.21318 v -0.8527 c 0,-0.10032 0.06521,-0.18559 0.163017,-0.21317 0.09781,-0.0276 0.198127,0.015 0.248286,0.10282 0.02257,0.0376 0.07273,0.0527 0.110349,0.0301 0.03762,-0.0226 0.05016,-0.0727 0.03009,-0.11035 -0.08778,-0.14797 -0.260826,-0.22572 -0.428858,-0.17807 -0.170539,0.0477 -0.283397,0.19562 -0.283397,0.36867 v 0.8527 c 0,0.17305 0.112858,0.32102 0.283397,0.36867 z"
           style="font-size:2.50794px;line-height:83%"
           id="path17057" />
        <path
           d="m 23.257976,273.01053 0.401271,1.45461 c 0.01003,0.0326 0.04013,0.0577 0.07775,0.0577 0.03762,0 0.06771,-0.0251 0.07524,-0.0577 l 0.40127,-1.45461 c 0.01254,-0.0426 -0.01254,-0.0878 -0.05517,-0.10032 -0.04264,-0.01 -0.08778,0.015 -0.09781,0.0577 -0.04264,0.15298 -0.08527,0.30346 -0.125397,0.44892 -0.06771,0.24578 -0.150476,0.54171 -0.198127,0.72479 -0.05517,-0.18308 -0.132921,-0.47651 -0.200635,-0.72479 -0.04013,-0.14546 -0.08276,-0.29594 -0.125397,-0.44892 -0.01003,-0.0426 -0.05518,-0.0677 -0.09781,-0.0577 -0.04264,0.0125 -0.06771,0.0577 -0.05518,0.10032 z"
           style="font-size:2.50794px;line-height:83%"
           id="path17059" />
        <path
           d="m 24.632327,273.34659 0.165524,-0.16552 v 1.26149 c 0,0.0477 0.0326,0.0803 0.08025,0.0803 0.04263,0 0.08025,-0.0326 0.08025,-0.0803 v -1.4546 c 0,-0.0376 -0.01756,-0.0627 -0.05016,-0.0752 -0.0301,-0.01 -0.06521,-0.005 -0.08778,0.0176 l -0.300953,0.30095 c -0.01505,0.0176 -0.02257,0.0351 -0.02257,0.0577 0,0.0226 0.0075,0.0401 0.02257,0.0577 0.01756,0.0151 0.03511,0.0226 0.05768,0.0226 0.02257,0 0.04013,-0.008 0.05517,-0.0226 z"
           style="font-size:2.50794px;line-height:83%"
           id="path17061" />
        <path
           d="m 26.623626,272.91774 h -0.652064 c -0.04263,0 -0.08025,0.0326 -0.08025,0.0803 0,0.0476 0.03762,0.0803 0.08025,0.0803 h 0.245778 v 1.36431 c 0,0.0477 0.03762,0.0803 0.08025,0.0803 0.04765,0 0.08025,-0.0326 0.08025,-0.0803 v -1.36431 h 0.245778 c 0.04765,0 0.08025,-0.0326 0.08025,-0.0803 0,-0.0477 -0.0326,-0.0803 -0.08025,-0.0803 z"
           style="font-size:2.50794px;line-height:83%"
           id="path17063" />
        <path
           d="m 27.270672,274.52282 c 0.210667,0 0.381207,-0.17054 0.381207,-0.38121 v -0.8527 c 0,-0.21066 -0.17054,-0.3812 -0.381207,-0.3812 -0.210667,0 -0.381206,0.17054 -0.381206,0.3812 v 0.8527 c 0,0.21067 0.170539,0.38121 0.381206,0.38121 z m 0,-1.45461 c 0.120382,0 0.220699,0.10032 0.220699,0.2207 v 0.8527 c 0,0.12289 -0.100317,0.2207 -0.220699,0.2207 -0.122889,0 -0.220698,-0.0978 -0.220698,-0.2207 v -0.8527 c 0,-0.12038 0.09781,-0.2207 0.220698,-0.2207 z"
           style="font-size:2.50794px;line-height:83%"
           id="path17065" />
      </g>
      <g
         inkscape:label="Layer 1"
         id="g20599"
         transform="matrix(0.22493746,0,0,0.22493746,-40.054012,174.02608)"
         style="display:inline;enable-background:new"
         inkscape:export-xdpi="600"
         inkscape:export-ydpi="600">
        <g
           id="g20597"
           transform="matrix(0.1065142,0,0,0.1065142,218.82155,499.00376)"
           style="fill:#ffffff">
          <g
             id="g20593"
             style="fill:#ffffff">
            <polygon
               id="polygon20581"
               points="640.94,328.304 606.315,328.304 571.691,328.304 571.691,305.222 571.691,289.29 606.315,289.29 606.316,298.069 640.94,298.069 640.94,259.056 537.067,259.056 537.067,362.929 640.94,362.929 "
               style="fill:#ffffff"
               transform="scale(1.0666667)" />
            <path
               id="path20583"
               d="m 443.5392,321.0592 v 66.06507 h 36.864 V 354.8768 h 36.93333 v 32.24747 h 37.00054 V 276.3264 h -66.0672 z m 73.81973,10.66667 -36.9792,-0.002 36.9792,-33.68746 z"
               inkscape:connector-curvature="0"
               style="fill:#ffffff;stroke-width:1.06667" />
            <path
               id="path20585"
               d="M 111.09547,276.3264 V 257.59467 H 74.116267 l 0.1664,129.5296 H 185.08053 V 276.3264 Z m 55.03786,60.33707 H 147.648 v 16.06826 h -10.00853 v -16.06826 h -3.51574 L 110.9248,352.73173 V 336.66347 H 92.747733 V 327.2992 H 110.9248 V 311.232 l 23.19787,16.0672 h 3.5168 V 311.232 H 147.648 v 16.0672 h 18.48533 z"
               inkscape:connector-curvature="0"
               style="fill:#ffffff;stroke-width:1.06667" />
            <path
               id="path20587"
               d="M 702.13547,276.3264 V 387.12427 H 812.93333 V 276.3264 Z m 73.7312,73.86453 H 738.9344 v -36.9312 h 36.93227 z"
               inkscape:connector-curvature="0"
               style="fill:#ffffff;stroke-width:1.06667" />
            <polygon
               id="polygon20589"
               points="231.128,310.993 254.394,332.696 190.825,332.696 190.825,362.929 294.698,362.929 294.698,332.696 272.366,311.113 294.698,289.29 294.698,259.056 190.825,259.056 190.825,289.29 253.516,289.29 "
               style="fill:#ffffff"
               transform="scale(1.0666667)" />
            <polygon
               id="polygon20591"
               points="312.344,332.865 312.344,363.049 355.542,363.289 355.542,332.559 375.968,311.113 355.542,289.273 405.684,289.41 436.556,259.176 312.344,259.176 312.344,289.41 333.836,311.113 "
               style="fill:#ffffff"
               transform="scale(1.0666667)" />
          </g>
          <g
             id="g20595"
             style="fill:#ffffff" />
        </g>
      </g>
      <g
         aria-label="CV 1"
         id="text20603"
         style="font-weight:bold;font-stretch:condensed;line-height:0%;font-family:Miso;-inkscape-font-specification:'Miso Bold Condensed';letter-spacing:-0.0142462px;word-spacing:0px;display:inline;opacity:1;fill:#ffffff;stroke-width:0.282223;enable-background:new"
         inkscape:transform-center-x="0.53338113"
         inkscape:transform-center-y="12.800079">
        <path
           d="m 6.1146565,191.72 c 0.2025653,0.0552 0.4204763,-0.0338 0.5248281,-0.21791 0.024553,-0.046 0.00921,-0.10742 -0.03683,-0.13505 -0.046038,-0.0246 -0.107421,-0.009 -0.1350435,0.0368 -0.061383,0.10743 -0.1841502,0.1596 -0.3038478,0.12584 -0.1196977,-0.0338 -0.1994961,-0.13811 -0.1994961,-0.26088 v -1.04352 c 0,-0.12276 0.079798,-0.22712 0.1994961,-0.26088 0.1196976,-0.0338 0.2424644,0.0184 0.3038478,0.12584 0.027622,0.046 0.089006,0.0644 0.1350435,0.0368 0.046037,-0.0276 0.061383,-0.089 0.03683,-0.13504 -0.1074209,-0.18108 -0.3191937,-0.27623 -0.5248281,-0.21791 -0.2087035,0.0583 -0.3468162,0.23939 -0.3468162,0.45116 v 1.04352 c 0,0.21177 0.1381127,0.39285 0.3468162,0.45117 z"
           style="font-size:3.06917px;line-height:1.25"
           id="path16967" />
        <path
           d="m 6.8676976,189.88464 0.4910672,1.78011 c 0.012277,0.0399 0.049107,0.0706 0.095144,0.0706 0.046038,0 0.082868,-0.0307 0.092075,-0.0706 l 0.4910672,-1.78011 c 0.015346,-0.0522 -0.015346,-0.10743 -0.067522,-0.12277 -0.052176,-0.0123 -0.1074209,0.0184 -0.1196976,0.0706 -0.052176,0.18722 -0.1043518,0.37137 -0.1534585,0.54938 -0.082868,0.30078 -0.1841502,0.66294 -0.2424644,0.88699 -0.067522,-0.22405 -0.162666,-0.58314 -0.2455336,-0.88699 -0.049107,-0.17801 -0.1012826,-0.36216 -0.1534585,-0.54938 -0.012277,-0.0522 -0.067522,-0.0829 -0.1196976,-0.0706 -0.052176,0.0153 -0.082868,0.0706 -0.067522,0.12277 z"
           style="font-size:3.06917px;line-height:1.25"
           id="path16969" />
        <path
           d="m 9.1103891,190.2959 0.2025652,-0.20256 v 1.54379 c 0,0.0583 0.039899,0.0982 0.098213,0.0982 0.052176,0 0.098213,-0.0399 0.098213,-0.0982 v -1.78012 c 0,-0.046 -0.021484,-0.0767 -0.061383,-0.0921 -0.03683,-0.0123 -0.079798,-0.006 -0.107421,0.0215 l -0.3683004,0.3683 c -0.018415,0.0215 -0.027622,0.043 -0.027622,0.0706 0,0.0276 0.00921,0.0491 0.027622,0.0706 0.021484,0.0184 0.042968,0.0276 0.070591,0.0276 0.027623,0 0.049107,-0.009 0.067522,-0.0276 z"
           style="font-size:3.06917px;line-height:1.25"
           id="path16971" />
      </g>
      <g
         aria-label="IN"
         id="text20607"
         style="font-weight:bold;font-stretch:condensed;line-height:0%;font-family:Miso;-inkscape-font-specification:'Miso Bold Condensed';letter-spacing:-0.0122175px;word-spacing:0px;display:inline;opacity:1;fill:#ffffff;stroke-width:0.282223;enable-background:new"
         inkscape:transform-center-x="-0.13538735"
         inkscape:transform-center-y="0.029468963">
        <path
           d="m 1.9307643,199.31109 c 0.051734,0 0.087131,-0.0354 0.087131,-0.0871 v -1.57926 c 0,-0.0517 -0.035397,-0.0871 -0.087131,-0.0871 -0.046289,0 -0.087132,0.0354 -0.087132,0.0871 v 1.57926 c 0,0.0517 0.040843,0.0871 0.087132,0.0871 z"
           style="font-size:2.72286px;line-height:1.25"
           id="path16962" />
        <path
           d="m 3.2445765,199.30837 c 0.040843,-0.008 0.068071,-0.0436 0.068071,-0.0844 v -1.57926 c 0,-0.0517 -0.035397,-0.0871 -0.087131,-0.0871 -0.051734,0 -0.087132,0.0354 -0.087132,0.0871 v 1.19806 c -0.1007458,-0.20966 -0.2532259,-0.52279 -0.3757546,-0.77601 -0.073517,-0.14976 -0.1470345,-0.30496 -0.2205517,-0.46017 -0.01906,-0.0354 -0.05718,-0.0545 -0.098023,-0.0463 -0.040843,0.008 -0.068071,0.0436 -0.068071,0.0844 v 1.57926 c 0,0.0517 0.035397,0.0871 0.087131,0.0871 0.051734,0 0.087132,-0.0354 0.087132,-0.0871 v -1.19806 c 0.1007458,0.20966 0.2505031,0.52279 0.3730318,0.77602 0.073517,0.14976 0.1470344,0.30496 0.2232745,0.46016 0.01906,0.0354 0.05718,0.0572 0.098023,0.0463 z"
           style="font-size:2.72286px;line-height:1.25"
           id="path16964" />
      </g>
      <g
         id="g45936"
         transform="matrix(0.80415146,0,0,0.80415146,-37.8991,48.185612)"
         inkscape:export-xdpi="600"
         inkscape:export-ydpi="600">
        <path
           id="path21011"
           style="fill:#ffffff;fill-opacity:1;fill-rule:evenodd;stroke:none;stroke-width:0.299998;stroke-miterlimit:10;paint-order:stroke fill markers"
           inkscape:transform-center-x="0.60999184"
           d="m 50.610122,247.78343 3.641051,-2.799 v 2.799 z"
           sodipodi:nodetypes="cccc"
           inkscape:transform-center-y="1.7726274e-05"
           inkscape:connector-curvature="0" />
        <g
           aria-label="1"
           id="text21785"
           style="font-weight:bold;font-stretch:condensed;line-height:0%;font-family:Miso;-inkscape-font-specification:'Miso Bold Condensed';letter-spacing:-0.0185753px;word-spacing:0px;display:inline;opacity:1;fill:#ffffff;stroke-width:0.282223;enable-background:new"
           inkscape:transform-center-x="0.58722876"
           inkscape:transform-center-y="14.092462">
          <path
             d="m 55.246751,245.81905 0.273228,-0.27322 v 2.08232 c 0,0.0787 0.05382,0.13247 0.132474,0.13247 0.07038,0 0.132473,-0.0538 0.132473,-0.13247 v -2.40109 c 0,-0.0621 -0.02898,-0.1035 -0.0828,-0.12419 -0.04968,-0.0166 -0.107635,-0.008 -0.144893,0.029 l -0.496777,0.49678 c -0.02484,0.029 -0.03726,0.058 -0.03726,0.0952 0,0.0373 0.01242,0.0662 0.03726,0.0952 0.02898,0.0248 0.05796,0.0373 0.09522,0.0373 0.03726,0 0.06624,-0.0124 0.09108,-0.0373 z"
             style="font-size:4.13981px;line-height:1.25"
             id="path16974" />
        </g>
      </g>
      <g
         id="g45931"
         transform="matrix(0.80415146,0,0,0.80415146,-35.811623,48.183988)"
         inkscape:export-xdpi="600"
         inkscape:export-ydpi="600">
        <g
           aria-label="2"
           id="text32607"
           style="font-weight:bold;font-stretch:condensed;line-height:0%;font-family:Miso;-inkscape-font-specification:'Miso Bold Condensed';letter-spacing:-0.0185753px;word-spacing:0px;display:inline;opacity:1;fill:#ffffff;stroke-width:0.282223;enable-background:new"
           inkscape:transform-center-x="0.58722876"
           inkscape:transform-center-y="14.092462">
          <path
             d="m 65.555486,245.59136 c 0.0621,0.0373 0.144893,0.0124 0.182151,-0.0497 0.04554,-0.0828 0.120055,-0.14076 0.21527,-0.16974 0.09522,-0.0248 0.186292,-0.0124 0.273228,0.0331 0.08694,0.0455 0.144893,0.12006 0.173872,0.21527 0.02898,0.0952 0.0207,0.18629 -0.02484,0.27323 l -0.86936,1.65592 c -0.02484,0.0414 -0.02484,0.0869 0.0041,0.13248 0.0207,0.0414 0.05796,0.0621 0.111775,0.0621 h 0.927317 c 0.07038,0 0.132474,-0.0538 0.132474,-0.13247 0,-0.0787 -0.0621,-0.13247 -0.132474,-0.13247 h -0.707908 c 0.07866,-0.14904 0.269088,-0.51334 0.44296,-0.84452 0.09936,-0.19458 0.206991,-0.39743 0.322905,-0.61684 0.07866,-0.15317 0.09522,-0.31462 0.04554,-0.47607 -0.04554,-0.16146 -0.153173,-0.28979 -0.298066,-0.36845 -0.144893,-0.0786 -0.310486,-0.0993 -0.471938,-0.0538 -0.165593,0.0414 -0.289787,0.13662 -0.376723,0.28979 -0.03726,0.0621 -0.01242,0.14489 0.04968,0.18215 z"
             style="font-size:4.13981px;line-height:1.25"
             id="path16977" />
        </g>
        <path
           id="path45305"
           style="fill:#ffffff;fill-opacity:1;fill-rule:evenodd;stroke:none;stroke-width:0.299998;stroke-miterlimit:10;paint-order:stroke fill markers"
           inkscape:transform-center-x="0.60999184"
           d="m 61.030809,247.78343 3.641051,-2.799 v 2.799 z"
           sodipodi:nodetypes="cccc"
           inkscape:transform-center-y="1.7726274e-05"
           inkscape:connector-curvature="0" />
      </g>
      <g
         style="display:inline"
         id="g20913"
         transform="translate(-13.883381,-22.288607)"
         inkscape:export-xdpi="600"
         inkscape:export-ydpi="600">
        <g
           id="g20911">
          <g
             id="g20907"
             transform="matrix(0.58020503,0,0,0.56820571,-15.577551,77.29819)"
             style="stroke-width:1.74163">
            <path
               style="fill:none;stroke:#ffffff;stroke-width:0.809859;stroke-linecap:round;stroke-linejoin:round;stroke-miterlimit:4;stroke-dasharray:none;stroke-opacity:1"
               d="m 84.497617,238.63084 h 3.385489 l 1.428159,-2.52653 3.268042,6.09247"
               id="path20899"
               sodipodi:nodetypes="cccc"
               inkscape:connector-curvature="0" />
            <path
               style="fill:none;stroke:#000000;stroke-width:0.460806px;stroke-linecap:butt;stroke-linejoin:miter;stroke-opacity:1"
               d="M 83.828934,240.09244 Z"
               id="path20901"
               inkscape:connector-curvature="0" />
            <path
               sodipodi:type="star"
               style="fill:#ffffff;fill-rule:evenodd;stroke:none;stroke-width:1.61316;stroke-linecap:square;paint-order:stroke fill markers"
               id="path20903"
               inkscape:flatsided="true"
               sodipodi:sides="3"
               sodipodi:cx="178.13338"
               sodipodi:cy="909.12122"
               sodipodi:r1="1.9228501"
               sodipodi:r2="0.96142507"
               sodipodi:arg1="-1.0471976"
               sodipodi:arg2="0"
               inkscape:rounded="0"
               inkscape:randomized="0"
               transform="matrix(0,-0.51263946,0.49165474,0,-357.67458,332.95143)"
               inkscape:transform-center-x="2.9000161e-06"
               inkscape:transform-center-y="0.12719134"
               d="m 179.0948,907.45598 0,3.33047 -2.88427,-1.66523 z" />
            <path
               sodipodi:type="star"
               style="fill:#ffffff;fill-rule:evenodd;stroke:none;stroke-width:1.61316;stroke-linecap:square;paint-order:stroke fill markers"
               id="path20905"
               inkscape:flatsided="true"
               sodipodi:sides="3"
               sodipodi:cx="178.13338"
               sodipodi:cy="909.12122"
               sodipodi:r1="1.9228501"
               sodipodi:r2="0.96142507"
               sodipodi:arg1="-1.0471976"
               sodipodi:arg2="0"
               inkscape:rounded="0"
               inkscape:randomized="0"
               transform="matrix(0,0.51263946,0.49165474,0,-357.67458,147.87614)"
               inkscape:transform-center-x="2.9000161e-06"
               inkscape:transform-center-y="-0.12718658"
               d="m 179.0948,907.45598 0,3.33047 -2.88427,-1.66523 z" />
          </g>
          <path
             style="fill:#ffffff;stroke:#ffffff;stroke-width:0.264583px;stroke-linecap:butt;stroke-linejoin:miter;stroke-opacity:1"
             d="m 36.234279,214.61802 v -1.39889"
             id="path20909"
             inkscape:connector-curvature="0" />
        </g>
      </g>
      <g
         id="g20927"
         transform="matrix(0.58020503,0,0,0.56820571,-35.855148,70.231489)"
         style="display:inline;stroke-width:1.74163"
         inkscape:export-xdpi="600"
         inkscape:export-ydpi="600">
        <path
           style="display:inline;fill:none;stroke:#ffffff;stroke-width:0.635695;stroke-linecap:butt;stroke-linejoin:miter;stroke-miterlimit:4;stroke-dasharray:none;stroke-opacity:1"
           d="m 85.302314,257.55133 h 4.617271 -0.137523"
           id="path20915"
           sodipodi:nodetypes="ccc"
           inkscape:connector-curvature="0" />
        <path
           style="display:inline;fill:none;stroke:#000000;stroke-width:0.460806px;stroke-linecap:butt;stroke-linejoin:miter;stroke-opacity:1"
           d="M 49.976904,240.83925 Z"
           id="path20917"
           transform="translate(30.789371,16.312534)"
           inkscape:connector-curvature="0" />
        <path
           sodipodi:type="star"
           style="display:inline;fill:#ffffff;fill-rule:evenodd;stroke-width:1.40351;stroke-linecap:square;paint-order:stroke fill markers"
           id="path20919"
           inkscape:flatsided="true"
           sodipodi:sides="3"
           sodipodi:cx="178.13338"
           sodipodi:cy="909.12122"
           sodipodi:r1="1.9228501"
           sodipodi:r2="0.96142507"
           sodipodi:arg1="-1.0471976"
           sodipodi:arg2="0"
           inkscape:rounded="0"
           inkscape:randomized="0"
           transform="matrix(0.57702141,0,0,0.57702141,-17.540363,-267.03109)"
           inkscape:transform-center-x="0.12718912"
           inkscape:transform-center-y="-3.030404e-06"
           d="m 179.0948,907.45598 0,3.33047 -2.88427,-1.66523 z" />
        <path
           sodipodi:type="star"
           style="display:inline;fill:#ffffff;fill-rule:evenodd;stroke-width:1.40351;stroke-linecap:square;paint-order:stroke fill markers"
           id="path20921"
           inkscape:flatsided="true"
           sodipodi:sides="3"
           sodipodi:cx="178.13338"
           sodipodi:cy="909.12122"
           sodipodi:r1="1.9228501"
           sodipodi:r2="0.96142507"
           sodipodi:arg1="-1.0471976"
           sodipodi:arg2="0"
           inkscape:rounded="0"
           inkscape:randomized="0"
           transform="matrix(-0.57702142,0,0,0.57702141,192.86119,-267.03109)"
           inkscape:transform-center-x="-0.12718776"
           inkscape:transform-center-y="-3.030404e-06"
           d="m 179.0948,907.45598 0,3.33047 -2.88427,-1.66523 z" />
        <g
           id="g20925">
          <path
             style="fill:none;stroke:#ffffff;stroke-width:0.809859;stroke-linecap:round;stroke-linejoin:round;stroke-miterlimit:4;stroke-dasharray:none;stroke-opacity:1"
             d="m 83.357575,255.53002 h 4.525531 l 1.428159,-2.52653 3.268042,6.09247"
             id="path20923"
             sodipodi:nodetypes="cccc"
             inkscape:connector-curvature="0" />
        </g>
      </g>
      <g
         aria-label="[FEEDBACK]"
         id="text103769"
         style="font-weight:bold;font-stretch:condensed;line-height:0%;font-family:Miso;-inkscape-font-specification:'Miso Bold Condensed';letter-spacing:-0.00978311px;word-spacing:0px;display:inline;opacity:1;fill:#ffffff;stroke-width:0.193807;enable-background:new"
         inkscape:transform-center-x="0.36628087"
         inkscape:transform-center-y="8.7899796">
        <path
           d="m 21.364078,249.42665 h 0.210765 c 0.04004,0 0.06744,-0.0274 0.06744,-0.0674 0,-0.04 -0.0274,-0.0674 -0.06744,-0.0674 h -0.143321 v -1.40791 h 0.143321 c 0.04004,0 0.06744,-0.0274 0.06744,-0.0674 0,-0.04 -0.0274,-0.0674 -0.06744,-0.0674 h -0.210765 c -0.04005,0 -0.06744,0.0274 -0.06744,0.0674 v 1.5428 c 0,0.04 0.0274,0.0674 0.06744,0.0674 z"
           style="font-size:2.10765px;line-height:1.25"
           id="path16983" />
        <path
           d="m 21.89385,249.25804 c 0.04004,0 0.06744,-0.0274 0.06744,-0.0674 v -0.55642 h 0.311932 c 0.04005,0 0.06745,-0.0274 0.06745,-0.0674 0,-0.04 -0.0274,-0.0674 -0.06745,-0.0674 h -0.311932 v -0.44682 h 0.354085 c 0.04004,0 0.06744,-0.0274 0.06744,-0.0675 0,-0.04 -0.0274,-0.0674 -0.06744,-0.0674 h -0.42153 c -0.03583,0 -0.06744,0.0274 -0.06744,0.0674 v 1.20558 c 0,0.04 0.03161,0.0674 0.06744,0.0674 z"
           style="font-size:2.10765px;line-height:1.25"
           id="path16985" />
        <path
           d="m 22.575373,247.98502 v 1.20558 c 0,0.04 0.0274,0.0674 0.06744,0.0674 h 0.42153 c 0.04005,0 0.06744,-0.0274 0.06744,-0.0674 0,-0.04 -0.0274,-0.0674 -0.06744,-0.0674 h -0.354085 v -0.48897 h 0.311932 c 0.04005,0 0.06744,-0.0274 0.06744,-0.0674 0,-0.04 -0.0274,-0.0674 -0.06744,-0.0674 h -0.311932 v -0.44682 h 0.354085 c 0.04005,0 0.06744,-0.0274 0.06744,-0.0675 0,-0.04 -0.0274,-0.0674 -0.06744,-0.0674 h -0.42153 c -0.04004,0 -0.06744,0.0274 -0.06744,0.0674 z"
           style="font-size:2.10765px;line-height:1.25"
           id="path16987" />
        <path
           d="m 23.341202,247.98502 v 1.20558 c 0,0.04 0.0274,0.0674 0.06744,0.0674 h 0.42153 c 0.04005,0 0.06744,-0.0274 0.06744,-0.0674 0,-0.04 -0.0274,-0.0674 -0.06744,-0.0674 h -0.354085 v -0.48897 h 0.311932 c 0.04005,0 0.06744,-0.0274 0.06744,-0.0674 0,-0.04 -0.0274,-0.0674 -0.06744,-0.0674 h -0.311932 v -0.44682 h 0.354085 c 0.04005,0 0.06744,-0.0274 0.06744,-0.0675 0,-0.04 -0.0274,-0.0674 -0.06744,-0.0674 h -0.42153 c -0.04004,0 -0.06744,0.0274 -0.06744,0.0674 z"
           style="font-size:2.10765px;line-height:1.25"
           id="path16989" />
        <path
           d="m 24.427393,247.91758 h -0.252918 c -0.04005,0 -0.06744,0.0274 -0.06744,0.0674 v 1.20558 c 0,0.04 0.0274,0.0674 0.06744,0.0674 h 0.252918 c 0.177042,0 0.320362,-0.14332 0.320362,-0.32036 v -0.69974 c 0,-0.17704 -0.14332,-0.32036 -0.320362,-0.32036 z m 0.185473,0.32036 v 0.69974 c 0,0.10327 -0.0822,0.18547 -0.185473,0.18547 h -0.185474 v -1.07068 h 0.185474 c 0.103274,0 0.185473,0.0843 0.185473,0.18547 z"
           style="font-size:2.10765px;line-height:1.25"
           id="path16991" />
        <path
           d="m 24.99932,247.98502 v 1.20558 c 0,0.04 0.0274,0.0674 0.06744,0.0674 h 0.252918 c 0.177042,0 0.320363,-0.14332 0.320363,-0.32036 v -0.11803 c 0,-0.10327 -0.04848,-0.1939 -0.124352,-0.25292 0.07588,-0.059 0.124352,-0.14964 0.124352,-0.25292 v -0.0759 c 0,-0.17704 -0.143321,-0.32036 -0.320363,-0.32036 h -0.252918 c -0.04005,0 -0.06744,0.0274 -0.06744,0.0674 z m 0.505836,0.83463 v 0.11803 c 0,0.10327 -0.08431,0.18547 -0.185473,0.18547 H 25.13421 v -0.48897 h 0.185473 c 0.101167,0 0.185473,0.0843 0.185473,0.18547 z m 0,-0.58171 v 0.0759 c 0,0.10328 -0.08431,0.18548 -0.185473,0.18548 H 25.13421 v -0.44682 h 0.185473 c 0.101167,0 0.185473,0.0843 0.185473,0.18547 z"
           style="font-size:2.10765px;line-height:1.25"
           id="path16993" />
        <path
           d="m 26.585026,249.18217 -0.337224,-1.22244 c -0.0084,-0.0316 -0.03372,-0.0506 -0.06534,-0.0506 -0.03162,0 -0.05691,0.019 -0.06534,0.0506 l -0.337224,1.22244 c -0.01054,0.0358 0.01054,0.0717 0.04637,0.0822 0.04004,0.0105 0.07377,-0.0105 0.08431,-0.0464 0.0063,-0.0211 0.01265,-0.0443 0.01897,-0.0696 0.01475,-0.0443 0.02529,-0.10327 0.04848,-0.17704 h 0.408884 c 0.01897,0.0738 0.03372,0.13278 0.04848,0.17704 0.0063,0.0253 0.01265,0.0485 0.01897,0.0696 0.01054,0.0358 0.04637,0.0569 0.0822,0.0464 0.04005,-0.0105 0.05901,-0.0464 0.04848,-0.0822 z m -0.236057,-0.34566 H 26.01596 c 0.05691,-0.20866 0.122244,-0.45525 0.166505,-0.607 0.04004,0.15175 0.109598,0.39834 0.166504,0.607 z"
           style="font-size:2.10765px;line-height:1.25"
           id="path16995" />
        <path
           d="m 26.984125,249.25593 c 0.139105,0.0379 0.288748,-0.0232 0.360409,-0.14964 0.01686,-0.0316 0.0063,-0.0738 -0.02529,-0.0927 -0.03161,-0.0169 -0.07377,-0.006 -0.09274,0.0253 -0.04215,0.0738 -0.126459,0.10959 -0.208657,0.0864 -0.0822,-0.0232 -0.136997,-0.0948 -0.136997,-0.17915 v -0.7166 c 0,-0.0843 0.0548,-0.15597 0.136997,-0.17915 0.0822,-0.0232 0.166504,0.0126 0.208657,0.0864 0.01897,0.0316 0.06112,0.0443 0.09274,0.0253 0.03162,-0.019 0.04215,-0.0611 0.02529,-0.0927 -0.07377,-0.12435 -0.219196,-0.18969 -0.360409,-0.14965 -0.14332,0.0401 -0.238164,0.1644 -0.238164,0.30983 v 0.7166 c 0,0.14543 0.09484,0.26978 0.238164,0.30982 z"
           style="font-size:2.10765px;line-height:1.25"
           id="path16997" />
        <path
           d="m 28.249467,249.16952 -0.333009,-0.69342 0.326686,-0.45946 c 0.02318,-0.0316 0.01686,-0.0717 -0.01475,-0.0949 -0.03161,-0.0232 -0.07166,-0.0169 -0.09484,0.0148 l -0.425745,0.59858 v -0.55853 c 0,-0.04 -0.0274,-0.0674 -0.06744,-0.0674 -0.03583,0 -0.06744,0.0274 -0.06744,0.0674 v 1.22244 c 0,0.04 0.03161,0.0674 0.06744,0.0674 0.04005,0 0.06744,-0.0274 0.06744,-0.0674 v -0.43207 l 0.118028,-0.1644 0.303502,0.62597 c 0.01475,0.0337 0.0548,0.0485 0.08852,0.0316 0.03372,-0.0169 0.04848,-0.0569 0.03161,-0.0906 z"
           style="font-size:2.10765px;line-height:1.25"
           id="path16999" />
        <path
           d="m 28.635921,247.74896 h -0.210765 c -0.04005,0 -0.06744,0.0274 -0.06744,0.0674 0,0.04 0.0274,0.0674 0.06744,0.0674 h 0.143321 v 1.40791 h -0.143321 c -0.04005,0 -0.06744,0.0274 -0.06744,0.0674 0,0.04 0.0274,0.0674 0.06744,0.0674 h 0.210765 c 0.03583,0 0.06744,-0.0274 0.06744,-0.0674 v -1.5428 c 0,-0.04 -0.03161,-0.0674 -0.06744,-0.0674 z"
           style="font-size:2.10765px;line-height:1.25"
           id="path17001" />
      </g>
      <path
         style="fill:none;stroke:#ffffff;stroke-width:0.265;stroke-linecap:butt;stroke-linejoin:miter;stroke-miterlimit:4;stroke-dasharray:none;stroke-opacity:1"
         d="m 25.142594,289.56354 v 0.96845 c -0.0077,0.42418 -0.251526,0.70862 -0.704813,0.70245 H 5.6351739 c -0.3860866,0.002 -0.7900804,-0.13274 -0.7939493,-0.70254 v -0.65506"
         id="path110254"
         sodipodi:nodetypes="cccccc" />
      <path
         sodipodi:type="star"
         style="display:inline;opacity:1;fill:#ffffff;fill-rule:evenodd;stroke:#ffffff;stroke-width:0;stroke-linecap:round;stroke-linejoin:round;stroke-miterlimit:4;stroke-dasharray:none;stroke-opacity:1;paint-order:markers fill stroke"
         id="path111415"
         inkscape:flatsided="true"
         sodipodi:sides="3"
         sodipodi:cx="12.279892"
         sodipodi:cy="1101.076"
         sodipodi:r1="2.105263"
         sodipodi:r2="1.0526316"
         sodipodi:arg1="0.52359878"
         sodipodi:arg2="1.5707963"
         inkscape:rounded="0"
         inkscape:randomized="0"
         d="m 14.103103,1102.1287 -3.646422,0 1.823211,-3.1579 z"
         transform="matrix(0.31408802,0,0,0.31408802,0.99569135,-55.595819)"
         inkscape:transform-center-y="-0.15304405"
         inkscape:transform-center-x="-0.0013926503" />
      <text
         xml:space="preserve"
         style="font-style:normal;font-variant:normal;font-weight:normal;font-stretch:normal;line-height:0%;font-family:NanumGothic;-inkscape-font-specification:NanumGothic;letter-spacing:0px;word-spacing:0px;display:inline;fill:#000000;fill-opacity:1;stroke:none;stroke-width:0.282223"
         x="11.42965"
         y="192.37901"
         id="text20611"><tspan
           sodipodi:role="line"
           id="tspan20609"
           x="11.42965"
           y="192.37901"
           style="font-size:4.51556px;line-height:1.25;stroke-width:0.282223"></tspan></text>
      <g
         aria-label="beta"
         transform="rotate(-34.870677,9.2633636,-15.055973)"
         id="text582"
         style="font-size:4.58611px;line-height:1.25;stroke-width:0.264583">
        <path
           d="m -97.194602,146.65896 h 0.458611 c 0.325613,0 0.596194,-0.26599 0.596194,-0.59619 v -0.88053 c 0,-0.3302 -0.270581,-0.5962 -0.596194,-0.5962 h -0.321028 v -0.79798 c 0,-0.078 -0.06421,-0.13758 -0.137583,-0.13758 -0.07796,0 -0.137584,0.0596 -0.137584,0.13758 v 2.73332 c 0,0.078 0.05962,0.13758 0.137584,0.13758 z m 0.137583,-1.79775 h 0.321028 c 0.178858,0 0.321027,0.14217 0.321027,0.32103 v 0.88053 c 0,0.17886 -0.142169,0.32103 -0.321027,0.32103 h -0.321028 z"
           style="font-weight:bold;font-stretch:condensed;font-family:Miso;-inkscape-font-specification:'Miso Bold Condensed';fill:#ff0000"
           id="path688" />
        <path
           d="m -95.240926,146.63145 c 0.224719,0.0917 0.481541,0.0413 0.651227,-0.12841 0.02752,-0.0275 0.04127,-0.0596 0.04127,-0.0963 0,-0.0413 -0.01376,-0.0734 -0.04127,-0.0963 -0.02752,-0.0275 -0.05962,-0.0413 -0.100894,-0.0413 -0.03669,0 -0.06879,0.0138 -0.09631,0.0413 -0.09172,0.0917 -0.22472,0.11924 -0.348545,0.0688 -0.123825,-0.0505 -0.197202,-0.16968 -0.197202,-0.2981 v -0.32102 h 0.779638 c 0.07796,0 0.137584,-0.0596 0.137584,-0.13759 v -0.45861 c 0,-0.3302 -0.265995,-0.59619 -0.596195,-0.59619 -0.3302,0 -0.596194,0.26599 -0.596194,0.59619 v 0.91722 c 0,0.24307 0.142169,0.45862 0.366889,0.55034 z m 0.229305,-1.78859 c 0.178859,0 0.321028,0.14217 0.321028,0.32103 v 0.32103 h -0.642055 v -0.32103 c 0,-0.17886 0.142169,-0.32103 0.321027,-0.32103 z"
           style="font-weight:bold;font-stretch:condensed;font-family:Miso;-inkscape-font-specification:'Miso Bold Condensed';fill:#ff0000"
           id="path690" />
        <path
           d="m -93.929307,144.86121 h 0.229305 v 1.2199 c 0,0.3302 0.265994,0.5962 0.596194,0.5962 0.07796,0 0.137584,-0.0596 0.137584,-0.13758 0,-0.078 -0.05962,-0.13759 -0.137584,-0.13759 -0.178858,0 -0.321027,-0.14217 -0.321027,-0.32103 v -1.2199 h 0.321027 c 0.07796,0 0.137584,-0.0596 0.137584,-0.13758 0,-0.078 -0.05962,-0.13759 -0.137584,-0.13759 h -0.321027 v -0.79798 c 0,-0.078 -0.05962,-0.13758 -0.137584,-0.13758 -0.07796,0 -0.137583,0.0596 -0.137583,0.13758 v 0.79798 h -0.229305 c -0.07796,0 -0.137584,0.0596 -0.137584,0.13759 0,0.078 0.05962,0.13758 0.137584,0.13758 z"
           style="font-weight:bold;font-stretch:condensed;font-family:Miso;-inkscape-font-specification:'Miso Bold Condensed';fill:#ff0000"
           id="path692" />
        <path
           d="m -91.773838,145.46658 h -0.321027 c -0.3302,0 -0.596195,0.26599 -0.596195,0.59619 0,0.3302 0.265995,0.59619 0.596195,0.59619 h 0.458611 c 0.07338,0 0.137583,-0.0596 0.137583,-0.13758 v -1.36666 c 0,-0.23848 -0.142169,-0.44944 -0.362303,-0.54116 -0.220133,-0.0917 -0.472369,-0.0413 -0.642055,0.12841 -0.02752,0.0229 -0.04127,0.055 -0.04127,0.0963 0,0.0367 0.01376,0.0688 0.04127,0.0963 0.02752,0.0275 0.05962,0.0413 0.09631,0.0413 0.04127,0 0.07338,-0.0138 0.100895,-0.0413 0.08714,-0.0917 0.215547,-0.11924 0.339372,-0.0688 0.114653,0.0504 0.192616,0.16051 0.192616,0.28892 z m -0.642055,0.59619 c 0,-0.17886 0.142169,-0.32103 0.321028,-0.32103 h 0.321027 v 0.64206 h -0.321027 c -0.178859,0 -0.321028,-0.14217 -0.321028,-0.32103 z"
           style="font-weight:bold;font-stretch:condensed;font-family:Miso;-inkscape-font-specification:'Miso Bold Condensed';fill:#ff0000"
           id="path694" />
      </g>
    </g>
    <g
       inkscape:groupmode="layer"
       id="layer3"
       inkscape:label="Graficos 1" />
  </g>
  <g
     inkscape:groupmode="layer"
     id="layer5"
     inkscape:label="components"
     style="display:none">
    <circle
       style="display:inline;fill:#ff0000;stroke-width:1;stroke-linejoin:round;stroke-miterlimit:1.5"
       id="path15312"
       cx="7.620008"
       cy="14.50001"
       r="2.1153846"
       inkscape:label="cv1" />
    <circle
       style="display:inline;fill:#ff0000;stroke-width:1;stroke-linejoin:round;stroke-miterlimit:1.5"
       id="res-6"
       cx="22.380014"
       cy="14.50001"
       r="4.1497326"
       inkscape:label="res" />
    <circle
       style="display:inline;fill:#00ff00;stroke-width:1;stroke-linejoin:round;stroke-miterlimit:1.5"
       id="path3400-2-6"
       cx="5"
       cy="86.499992"
       r="4.1497326"
       inkscape:label="in1" />
    <circle
       style="display:inline;fill:#00ff00;stroke-width:1;stroke-linejoin:round;stroke-miterlimit:1.5"
       id="path3400-2-7-1"
       cx="5"
       cy="100.00001"
       r="4.1497326"
       inkscape:label="in2" />
    <circle
       style="display:inline;fill:#00ff00;stroke-width:1;stroke-linejoin:round;stroke-miterlimit:1.5"
       id="path3400-2-1-4"
       cx="5"
       cy="113.50001"
       r="4.1497326"
       inkscape:label="in3" />
    <circle
       style="display:inline;fill:#00ff00;stroke-width:1;stroke-linejoin:round;stroke-miterlimit:1.5"
       id="path3400-2-5-0"
       cx="15"
       cy="86.499992"
       r="4.1497326"
       inkscape:label="res" />
    <circle
       style="display:inline;fill:#00ff00;stroke-width:1;stroke-linejoin:round;stroke-miterlimit:1.5"
       id="path3400-2-2-8"
       cx="15"
       cy="100.00001"
       r="4.1497326"
       inkscape:label="cv1" />
    <circle
       style="display:inline;fill:#00ff00;stroke-width:1;stroke-linejoin:round;stroke-miterlimit:1.5"
       id="path3400-2-11-1"
       cx="14.999999"
       cy="113.50001"
       r="4.1497326"
       inkscape:label="cv2" />
    <circle
       style="display:inline;fill:#00ff00;stroke-width:1;stroke-linejoin:round;stroke-miterlimit:1.5"
       id="path3400-2-0-0"
       cx="25"
       cy="86.499992"
       r="4.1497326"
       inkscape:label="vca" />
    <circle
       style="display:inline;fill:#0000ff;stroke-width:1;stroke-linejoin:round;stroke-miterlimit:1.5"
       id="path3400-2-18-3"
       cx="25"
       cy="113.50001"
       r="4.1497326"
       inkscape:label="in1" />
    <rect
       style="display:inline;fill:#ff0000;fill-opacity:1;stroke-width:0.264583"
       id="rect4118-1"
       width="1.5111226"
       height="2.3391304"
       x="3.2166896"
       y="49.783596"
       inkscape:label="gain1" />
    <rect
       style="display:inline;fill:#ff0000;fill-opacity:1;stroke-width:0.264583"
       id="rect4120-1"
       width="1.3726555"
       height="2.5262194"
       x="13.270858"
       y="49.783596"
       inkscape:label="gain2" />
    <rect
       style="display:inline;fill:#ff0000;fill-opacity:1;stroke-width:0.264583"
       id="rect4122-5"
       width="1.3371768"
       height="2.9939408"
       x="23.315578"
       y="49.783596"
       inkscape:label="gain3" />
    <circle
       style="display:inline;fill:#ff00ff;fill-opacity:1;fill-rule:evenodd;stroke-width:0.264583"
       id="path882-9-7-0"
       cx="2.5781407"
       cy="27.158762"
       r="1.0289876"
       inkscape:label="in1" />
    <circle
       style="display:inline;fill:#ff00ff;fill-opacity:1;fill-rule:evenodd;stroke-width:0.264583"
       id="path882-9-7-5-8"
       cx="2.5781407"
       cy="23.492044"
       r="1.0289876"
       inkscape:label="in2" />
    <rect
       style="display:inline;fill:#ff0000;fill-opacity:1;stroke-width:0.264583"
       id="rect4122-6-9"
       width="1.3371768"
       height="2.9939408"
       x="23.49795"
       y="96.783913"
       inkscape:label="routing" />
    <circle
       style="display:inline;fill:#ff0000;stroke-width:1;stroke-linejoin:round;stroke-miterlimit:1.5"
       id="path3400-8-4"
       cx="15"
       cy="35.000683"
       r="4.1497326"
       inkscape:label="freq" />
  </g>
</svg>
